<svg xmlns="http://www.w3.org/2000/svg" width="1284" height="1019.632" viewBox="0 0 1284 1019.632">
  <g id="グループ_2328" data-name="グループ 2328" transform="translate(1634 -3815.368)">
    <g id="グループ_2327" data-name="グループ 2327">
      <path id="パス_5070" data-name="パス 5070" d="M0,0H1280V625H0Z" transform="translate(-1630 4210)" fill="#93b82c"/>
      <g id="コンポーネント_13_2" data-name="コンポーネント 13 – 2" transform="translate(-1630 3815.368)">
        <g id="グループ_2322" data-name="グループ 2322">
          <g id="グループ_1511" data-name="グループ 1511" transform="translate(-4349.829 -4713.093)">
            <rect id="長方形_1202" data-name="長方形 1202" width="101.477" height="46.647" transform="translate(4939.269 4713.093)" fill="#59aac3"/>
            <g id="グループ_1510" data-name="グループ 1510">
              <path id="パス_1299" data-name="パス 1299" d="M4864.412,4759.74v123.933h62.444c0-35.748,27.677-64.726,61.817-64.726s61.818,28.979,61.818,64.726h70V4759.74Z" fill="#ef4441"/>
            </g>
            <rect id="長方形_1203" data-name="長方形 1203" width="12.837" height="12.837" transform="translate(5012.112 4786.018)" fill="#f6ede8"/>
            <rect id="長方形_1204" data-name="長方形 1204" width="12.837" height="12.837" transform="translate(5060.583 4786.018)" fill="#f6ede8"/>
            <rect id="長方形_1205" data-name="長方形 1205" width="12.837" height="12.837" transform="translate(4915.17 4786.018)" fill="#f6ede8"/>
            <rect id="長方形_1206" data-name="長方形 1206" width="12.837" height="12.837" transform="translate(4963.641 4786.018)" fill="#f6ede8"/>
            <rect id="長方形_1207" data-name="長方形 1207" width="10.387" height="46.647" transform="translate(4939.269 4713.093)" fill="#1f2e7e"/>
            <rect id="長方形_1208" data-name="長方形 1208" width="10.387" height="46.647" transform="translate(4969.272 4713.093)" fill="#1f2e7e"/>
            <rect id="長方形_1209" data-name="長方形 1209" width="10.387" height="46.647" transform="translate(5000.354 4713.093)" fill="#1f2e7e"/>
            <rect id="長方形_1210" data-name="長方形 1210" width="10.387" height="46.647" transform="translate(5030.358 4713.093)" fill="#1f2e7e"/>
          </g>
          <g id="グループ_1704" data-name="グループ 1704" transform="translate(2520.282 -1614.236)">
            <path id="パス_1708" data-name="パス 1708" d="M-2127.1,1766.534l13.181-18.268a15.216,15.216,0,0,0-5.57-20.785,15.215,15.215,0,0,0-20.785,5.57,15.222,15.222,0,0,0,0,15.215Z" transform="translate(250.816 67.6)" fill="#93b82c"/>
            <path id="パス_1709" data-name="パス 1709" d="M-2236.044,1727.4a17.488,17.488,0,0,0,23.888-6.4,17.486,17.486,0,0,0-6.4-23.888,17.489,17.489,0,0,0-17.484,0l-20.988,15.147Z" transform="translate(174.688 47.248)" fill="#93b82c"/>
            <path id="パス_1710" data-name="パス 1710" d="M-2107.286,1771.426a15.216,15.216,0,0,0,15.211-15.22,15.216,15.216,0,0,0-15.22-15.212,15.209,15.209,0,0,0-7.6,2.038l-18.268,13.181,18.268,13.172A15.212,15.212,0,0,0-2107.286,1771.426Z" transform="translate(256.884 77.921)" fill="#93b82c"/>
            <path id="パス_1711" data-name="パス 1711" d="M-1976.63,1664.662l13.179-18.268a15.216,15.216,0,0,0-5.57-20.785,15.215,15.215,0,0,0-20.783,5.569,15.213,15.213,0,0,0,0,15.215Z" transform="translate(350.663)" fill="#93b82c"/>
            <path id="パス_1712" data-name="パス 1712" d="M-2362.415,1806.99l13.173-18.267a15.214,15.214,0,0,0-5.57-20.781,15.215,15.215,0,0,0-20.783,5.569,15.216,15.216,0,0,0,0,15.212Z" transform="translate(94.659 94.449)" fill="#93b82c"/>
            <path id="パス_1713" data-name="パス 1713" d="M-2080.171,1785.311l14.014-10.113-14.014-10.115a11.678,11.678,0,0,0-15.954,4.274,11.679,11.679,0,0,0,4.274,15.954,11.673,11.673,0,0,0,11.68,0Z" transform="translate(280.423 92.867)" fill="#93b82c"/>
            <path id="パス_1714" data-name="パス 1714" d="M-2164.584,1780.82a11.683,11.683,0,0,0-11.677,11.687,11.7,11.7,0,0,0,1.564,5.834l10.113,14.014,10.114-14.014a11.679,11.679,0,0,0-4.27-15.954A11.682,11.682,0,0,0-2164.584,1780.82Z" transform="translate(228.286 104.349)" fill="#93b82c"/>
            <path id="パス_1715" data-name="パス 1715" d="M-2149.408,1790.179a14.247,14.247,0,0,0,14.24-14.252,14.245,14.245,0,0,0-14.252-14.24,14.249,14.249,0,0,0-7.115,1.906l-17.1,12.339,17.1,12.339A14.274,14.274,0,0,0-2149.408,1790.179Z" transform="translate(230.029 91.653)" fill="#93b82c"/>
            <path id="パス_1716" data-name="パス 1716" d="M-2011.79,1689.145l12.334-17.1a14.245,14.245,0,0,0-5.214-19.459,14.245,14.245,0,0,0-19.459,5.215,14.237,14.237,0,0,0,0,14.244Z" transform="translate(327.972 17.988)" fill="#93b82c"/>
            <path id="パス_1717" data-name="パス 1717" d="M-2019.227,1691.832l17.1-12.339-17.1-12.337a14.248,14.248,0,0,0-19.462,5.213,14.248,14.248,0,0,0,5.214,19.462A14.249,14.249,0,0,0-2019.227,1691.832Z" transform="translate(318.308 27.656)" fill="#93b82c"/>
            <path id="パス_1718" data-name="パス 1718" d="M-1993.248,1693.728a14.243,14.243,0,0,0,14.24-14.25,14.247,14.247,0,0,0-14.25-14.242,14.243,14.243,0,0,0-7.115,1.908l-17.1,12.339,17.1,12.337A14.223,14.223,0,0,0-1993.248,1693.728Z" transform="translate(333.655 27.65)" fill="#93b82c"/>
            <path id="パス_1719" data-name="パス 1719" d="M-2074.077,1783.106l10.113-14.015a11.678,11.678,0,0,0-4.274-15.954,11.68,11.68,0,0,0-15.954,4.274,11.68,11.68,0,0,0,0,11.68Z" transform="translate(288.344 84.939)" fill="#93b82c"/>
            <path id="パス_1720" data-name="パス 1720" d="M-1984.57,1667.534l18.264-13.182-18.264-13.179a15.22,15.22,0,0,0-20.79,5.571,15.217,15.217,0,0,0,5.571,20.788,15.21,15.21,0,0,0,15.219,0Z" transform="translate(340.339 10.327)" fill="#93b82c"/>
            <path id="パス_1721" data-name="パス 1721" d="M-2063.05,1788.258a16.337,16.337,0,0,0-16.332,16.341,16.339,16.339,0,0,0,2.184,8.16l14.147,19.6,14.148-19.6a16.331,16.331,0,0,0-5.972-22.31A16.348,16.348,0,0,0-2063.05,1788.258Z" transform="translate(292.573 109.285)" fill="#93b82c"/>
            <path id="パス_1722" data-name="パス 1722" d="M-2064.713,1785.3a11.676,11.676,0,0,0,15.949-4.277,11.677,11.677,0,0,0-4.277-15.95,11.673,11.673,0,0,0-11.672,0l-14.022,10.115Z" transform="translate(293.003 92.861)" fill="#93b82c"/>
            <path id="パス_1723" data-name="パス 1723" d="M-2025.872,1769.159h0l20.994,15.147a17.485,17.485,0,0,0,23.888-6.4,17.487,17.487,0,0,0-6.4-23.889,17.487,17.487,0,0,0-17.493,0l-20.993,15.137,15.145-20.986a17.49,17.49,0,0,0-6.4-23.891,17.49,17.49,0,0,0-23.891,6.4,17.49,17.49,0,0,0,0,17.49Z" transform="translate(316.476 65.274)" fill="#93b82c"/>
            <path id="パス_1724" data-name="パス 1724" d="M-2167.956,1785.6l12.337-17.1a14.247,14.247,0,0,0-5.215-19.459,14.246,14.246,0,0,0-19.458,5.216,14.246,14.246,0,0,0,0,14.244Z" transform="translate(224.345 81.991)" fill="#93b82c"/>
            <path id="パス_1725" data-name="パス 1725" d="M-2321.757,1682.512a15.221,15.221,0,0,0,20.79-5.57,15.219,15.219,0,0,0-5.57-20.788,15.224,15.224,0,0,0-15.22,0l-18.261,13.179Z" transform="translate(119.62 20.27)" fill="#93b82c"/>
            <path id="パス_1726" data-name="パス 1726" d="M-2290.9,1662.148a14.248,14.248,0,0,0-19.462,5.214,14.248,14.248,0,0,0,0,14.242l12.337,17.1,12.339-17.1a14.242,14.242,0,0,0-5.207-19.454Z" transform="translate(138.03 24.333)" fill="#93b82c"/>
            <path id="パス_1727" data-name="パス 1727" d="M-2333.946,1679.644l13.172-18.268a15.213,15.213,0,0,0-5.568-20.783,15.215,15.215,0,0,0-20.785,5.568,15.212,15.212,0,0,0,0,15.215Z" transform="translate(113.55 9.943)" fill="#93b82c"/>
            <path id="パス_1728" data-name="パス 1728" d="M-2256.21,1750.738a11.683,11.683,0,0,0-4.279,15.956v0l10.113,14.014,10.113-14.014a11.679,11.679,0,0,0-4.269-15.956,11.678,11.678,0,0,0-11.68,0Z" transform="translate(171.355 83.349)" fill="#93b82c"/>
            <path id="パス_1729" data-name="パス 1729" d="M-2349.506,1684.535a15.224,15.224,0,0,0,7.611-2.04l18.268-13.174-18.268-13.179a15.215,15.215,0,0,0-20.783,5.573,15.216,15.216,0,0,0,5.573,20.783A15.213,15.213,0,0,0-2349.506,1684.535Z" transform="translate(103.23 20.262)" fill="#93b82c"/>
            <path id="パス_1730" data-name="パス 1730" d="M-2382.2,1703.557a16.332,16.332,0,0,0-22.311,5.98,16.333,16.333,0,0,0,0,16.332l14.149,19.6,14.145-19.6A16.337,16.337,0,0,0-2382.2,1703.557Z" transform="translate(75.372 51.625)" fill="#93b82c"/>
            <path id="パス_1731" data-name="パス 1731" d="M-2381.137,1714.332a17.485,17.485,0,0,0,6.391,23.887,17.481,17.481,0,0,0,17.494,0l20.994-15.146h0l15.146-20.987a17.486,17.486,0,0,0-6.4-23.887,17.488,17.488,0,0,0-23.889,6.4,17.486,17.486,0,0,0,0,17.484l15.143,20.983-20.993-15.144A17.486,17.486,0,0,0-2381.137,1714.332Z" transform="translate(90.776 34.696)" fill="#93b82c"/>
            <path id="パス_1732" data-name="パス 1732" d="M-2354.959,1742.575a16.331,16.331,0,0,0-5.974-22.31,16.33,16.33,0,0,0-16.337,0l-19.607,14.14,19.607,14.147a16.334,16.334,0,0,0,22.311-5.976Z" transform="translate(81.889 62.713)" fill="#93b82c"/>
            <path id="パス_1733" data-name="パス 1733" d="M-2324.923,1681.917a14.244,14.244,0,0,0,5.2,19.461,14.244,14.244,0,0,0,14.252,0l17.1-12.338-17.1-12.337a14.24,14.24,0,0,0-19.454,5.212Z" transform="translate(128.366 33.992)" fill="#93b82c"/>
            <path id="パス_1734" data-name="パス 1734" d="M-2339.128,1790.4a16.325,16.325,0,0,0,8.166-2.189l19.6-14.14-19.6-14.147a16.335,16.335,0,0,0-22.312,5.976,16.333,16.333,0,0,0,5.978,22.312A16.328,16.328,0,0,0-2339.128,1790.4Z" transform="translate(109.37 89.028)" fill="#93b82c"/>
            <path id="パス_1735" data-name="パス 1735" d="M-2310.217,1719.975a17.489,17.489,0,0,0-6.407-23.889,17.49,17.49,0,0,0-17.479,0l-20.994,15.147,20.994,15.145A17.487,17.487,0,0,0-2310.217,1719.975Z" transform="translate(109.614 46.568)" fill="#93b82c"/>
            <path id="パス_1736" data-name="パス 1736" d="M-2286.613,1701.389a14.248,14.248,0,0,0,19.462-5.214,14.248,14.248,0,0,0-5.213-19.462,14.25,14.25,0,0,0-14.249,0l-17.1,12.339Z" transform="translate(143.711 33.998)" fill="#93b82c"/>
            <path id="パス_1737" data-name="パス 1737" d="M-2283.074,1715.359a17.485,17.485,0,0,0,6.4,23.889,17.486,17.486,0,0,0,17.488,0l21-15.147h0l15.145-20.988a17.489,17.489,0,0,0-6.4-23.891,17.488,17.488,0,0,0-23.889,6.4,17.489,17.489,0,0,0,0,17.489l15.145,20.986-20.992-15.137a17.485,17.485,0,0,0-23.888,6.385Z" transform="translate(155.849 35.375)" fill="#93b82c"/>
            <path id="パス_1738" data-name="パス 1738" d="M-2307.794,1730.064l14.019-10.113-14.021-10.115a11.679,11.679,0,0,0-15.954,4.274,11.681,11.681,0,0,0,4.274,15.955,11.681,11.681,0,0,0,11.68,0Z" transform="translate(129.375 56.206)" fill="#93b82c"/>
            <path id="パス_1739" data-name="パス 1739" d="M-2308.291,1765.545a16.338,16.338,0,0,0-5.978-22.317,16.337,16.337,0,0,0-22.315,5.979,16.334,16.334,0,0,0,0,16.338l14.149,19.6Z" transform="translate(120.446 77.95)" fill="#93b82c"/>
            <path id="パス_1740" data-name="パス 1740" d="M-2276.386,1725.8a11.679,11.679,0,0,0-4.277-15.952,11.673,11.673,0,0,0-11.678,0l-14.016,10.115,14.016,10.113a11.679,11.679,0,0,0,15.953-4.275Z" transform="translate(141.957 56.213)" fill="#93b82c"/>
            <path id="パス_1741" data-name="パス 1741" d="M-2295.863,1697.9a11.68,11.68,0,0,0-15.952,4.281,11.68,11.68,0,0,0,0,11.677l10.113,14.016,10.114-14.016A11.682,11.682,0,0,0-2295.863,1697.9Z" transform="translate(137.298 48.287)" fill="#93b82c"/>
            <path id="パス_1742" data-name="パス 1742" d="M-2175.391,1788.283l17.1-12.339-17.1-12.337a14.246,14.246,0,0,0-19.461,5.214,14.246,14.246,0,0,0,5.212,19.462A14.249,14.249,0,0,0-2175.391,1788.283Z" transform="translate(214.68 91.659)" fill="#93b82c"/>
            <path id="パス_1743" data-name="パス 1743" d="M-1777.24,1712.446a14.247,14.247,0,0,0,14.24-14.252,14.246,14.246,0,0,0-14.252-14.24,14.247,14.247,0,0,0-7.115,1.906l-17.1,12.339,17.1,12.337A14.25,14.25,0,0,0-1777.24,1712.446Z" transform="translate(476.993 40.071)" fill="#93b82c"/>
            <path id="パス_1744" data-name="パス 1744" d="M-1795.785,1707.862l12.337-17.1a14.245,14.245,0,0,0-5.215-19.459,14.245,14.245,0,0,0-19.459,5.215,14.249,14.249,0,0,0,0,14.244Z" transform="translate(471.311 30.408)" fill="#93b82c"/>
            <path id="パス_1745" data-name="パス 1745" d="M-1824.592,1698.21a14.248,14.248,0,0,0,14.247,14.249,14.241,14.241,0,0,0,7.123-1.91l17.1-12.339-17.1-12.337a14.247,14.247,0,0,0-19.462,5.217A14.249,14.249,0,0,0-1824.592,1698.21Z" transform="translate(461.647 40.076)" fill="#93b82c"/>
            <path id="パス_1746" data-name="パス 1746" d="M-1769.163,1685.049l18.261-13.181-18.261-13.179a15.219,15.219,0,0,0-20.79,5.568,15.219,15.219,0,0,0,5.57,20.79,15.215,15.215,0,0,0,15.22,0Z" transform="translate(483.279 21.951)" fill="#93b82c"/>
            <path id="パス_1747" data-name="パス 1747" d="M-1956.821,1669.556a15.217,15.217,0,0,0,15.212-15.22,15.216,15.216,0,0,0-15.22-15.214,15.219,15.219,0,0,0-7.6,2.04l-18.266,13.179,18.266,13.174A15.24,15.24,0,0,0-1956.821,1669.556Z" transform="translate(356.731 10.321)" fill="#93b82c"/>
            <path id="パス_1748" data-name="パス 1748" d="M-1761.226,1682.178l13.18-18.27a15.214,15.214,0,0,0-5.569-20.783,15.214,15.214,0,0,0-20.783,5.568,15.213,15.213,0,0,0,0,15.215Z" transform="translate(493.603 11.623)" fill="#93b82c"/>
            <path id="パス_1749" data-name="パス 1749" d="M-1807.506,1763.349a17.487,17.487,0,0,0,23.889-6.4,17.488,17.488,0,0,0-6.4-23.889,17.484,17.484,0,0,0-17.491,0L-1828.5,1748.2l15.144-20.988a17.487,17.487,0,0,0-6.4-23.887,17.488,17.488,0,0,0-23.889,6.4,17.486,17.486,0,0,0,0,17.484l15.147,20.988h0Z" transform="translate(447.45 51.369)" fill="#93b82c"/>
            <path id="パス_1750" data-name="パス 1750" d="M-1822.99,1690.122a16.334,16.334,0,0,0,22.312-5.977,16.334,16.334,0,0,0-5.977-22.312,16.336,16.336,0,0,0-16.335,0l-19.6,14.149Z" transform="translate(449.704 23.94)" fill="#93b82c"/>
            <path id="パス_1751" data-name="パス 1751" d="M-1758.494,1704.614l14.259,19.756v-45.961a17.479,17.479,0,0,0-16.581,18.333,17.5,17.5,0,0,0,2.322,7.869Z" transform="translate(503.953 36.391)" fill="#93b82c"/>
            <path id="パス_1752" data-name="パス 1752" d="M-1755.444,1793.838a14.244,14.244,0,0,0,14.24-14.25,14.249,14.249,0,0,0-14.252-14.242,14.249,14.249,0,0,0-7.115,1.908l-17.1,12.339,17.1,12.337A14.233,14.233,0,0,0-1755.444,1793.838Z" transform="translate(491.456 94.081)" fill="#93b82c"/>
            <path id="パス_1753" data-name="パス 1753" d="M-1741.413,1687.067c.493,0,.98-.028,1.461-.075v-30.274a15.117,15.117,0,0,0-9.073,1.955l-18.268,13.18,18.268,13.172A15.23,15.23,0,0,0-1741.413,1687.067Z" transform="translate(499.67 21.947)" fill="#93b82c"/>
            <path id="パス_1754" data-name="パス 1754" d="M-1788.549,1765.357A14.246,14.246,0,0,0-1802.8,1779.6a14.246,14.246,0,0,0,14.245,14.249,14.256,14.256,0,0,0,7.127-1.91l17.1-12.337-17.1-12.339A14.257,14.257,0,0,0-1788.549,1765.357Z" transform="translate(476.11 94.088)" fill="#93b82c"/>
            <path id="パス_1755" data-name="パス 1755" d="M-1761.653,1772.155a14.244,14.244,0,0,0-5.214-19.459,14.245,14.245,0,0,0-19.459,5.212,14.246,14.246,0,0,0,0,14.247l12.337,17.1Z" transform="translate(485.774 84.418)" fill="#93b82c"/>
            <path id="パス_1757" data-name="パス 1757" d="M-1844.6,1690.139l19.607-14.147-19.607-14.141a16.332,16.332,0,0,0-22.31,5.977,16.332,16.332,0,0,0,5.977,22.31A16.331,16.331,0,0,0-1844.6,1690.139Z" transform="translate(432.11 23.95)" fill="#93b82c"/>
            <path id="パス_1758" data-name="パス 1758" d="M-1732.374,1713.126l-20.106-14.507a17.486,17.486,0,0,0-23.887,6.405,17.485,17.485,0,0,0,6.4,23.887,17.487,17.487,0,0,0,17.484,0l20.106-14.5Z" transform="translate(492.092 48.246)" fill="#93b82c"/>
            <path id="パス_1759" data-name="パス 1759" d="M-1836.075,1687.054l14.147-19.6a16.335,16.335,0,0,0-5.982-22.312,16.335,16.335,0,0,0-22.312,5.984,16.33,16.33,0,0,0,0,16.328Z" transform="translate(443.188 12.863)" fill="#93b82c"/>
            <path id="パス_1760" data-name="パス 1760" d="M-1930.449,1683.7l14.012-10.113-14.012-10.114a11.682,11.682,0,0,0-15.956,4.273,11.682,11.682,0,0,0,4.275,15.956,11.682,11.682,0,0,0,11.68,0Z" transform="translate(379.776 25.437)" fill="#93b82c"/>
            <path id="パス_1761" data-name="パス 1761" d="M-1965.692,1665.021a17.487,17.487,0,0,0-6.4,23.89h0l15.143,20.988h0l21,15.142a17.485,17.485,0,0,0,23.886-6.4,17.488,17.488,0,0,0-6.4-23.888,17.486,17.486,0,0,0-17.483,0l-20.991,15.139,15.14-20.976a17.49,17.49,0,0,0-6.4-23.891,17.49,17.49,0,0,0-17.486,0Z" transform="translate(362.212 25.954)" fill="#93b82c"/>
            <path id="パス_1762" data-name="パス 1762" d="M-1950.485,1741.442a14.244,14.244,0,0,0-14.237-14.249,14.258,14.258,0,0,0-7.127,1.91l-17.1,12.337,12.335-17.1a14.246,14.246,0,0,0-5.216-19.459,14.245,14.245,0,0,0-19.459,5.215,14.247,14.247,0,0,0,0,14.243l12.339,17.1h0l17.1,12.337a14.24,14.24,0,0,0,19.454-5.209,14.227,14.227,0,0,0,1.91-7.128Z" transform="translate(343.13 52.69)" fill="#93b82c"/>
            <path id="パス_1763" data-name="パス 1763" d="M-1924.356,1681.493l10.113-14.016a11.679,11.679,0,0,0-4.274-15.954,11.679,11.679,0,0,0-15.954,4.274,11.68,11.68,0,0,0,0,11.68Z" transform="translate(387.696 17.51)" fill="#93b82c"/>
            <path id="パス_1764" data-name="パス 1764" d="M-1914.994,1683.684a11.676,11.676,0,0,0,15.951-4.277,11.678,11.678,0,0,0-4.279-15.95,11.674,11.674,0,0,0-11.672,0l-14.021,10.114Z" transform="translate(392.355 25.431)" fill="#93b82c"/>
            <path id="パス_1765" data-name="パス 1765" d="M-1966.084,1682.908a17.486,17.486,0,0,0-23.885,6.4,17.487,17.487,0,0,0,6.4,23.887,17.488,17.488,0,0,0,17.481,0l20.995-15.147Z" transform="translate(350.35 37.821)" fill="#93b82c"/>
            <path id="パス_1766" data-name="パス 1766" d="M-1991.875,1785.042a15.221,15.221,0,0,0,15.223,15.219,15.236,15.236,0,0,0,7.606-2.038l18.261-13.18-18.261-13.179a15.221,15.221,0,0,0-20.791,5.575A15.213,15.213,0,0,0-1991.875,1785.042Z" transform="translate(350.641 97.052)" fill="#93b82c"/>
            <path id="パス_1767" data-name="パス 1767" d="M-2003.509,1717.544a14.246,14.246,0,0,0-14.249,14.246,14.245,14.245,0,0,0,14.245,14.249,14.249,14.249,0,0,0,7.127-1.91l17.1-12.337-17.1-12.339A14.258,14.258,0,0,0-2003.509,1717.544Z" transform="translate(333.466 62.36)" fill="#93b82c"/>
            <path id="パス_1768" data-name="パス 1768" d="M-1863.043,1713.952l10.115-14.016a11.68,11.68,0,0,0-4.276-15.954,11.681,11.681,0,0,0-15.954,4.273,11.682,11.682,0,0,0,0,11.68Z" transform="translate(428.382 39.05)" fill="#93b82c"/>
            <path id="パス_1769" data-name="パス 1769" d="M-1897.528,1736.407a16.332,16.332,0,0,0,22.312-5.976,16.334,16.334,0,0,0-5.977-22.312,16.334,16.334,0,0,0-16.335,0l-19.6,14.147Z" transform="translate(400.242 54.654)" fill="#93b82c"/>
            <path id="パス_1770" data-name="パス 1770" d="M-1869.136,1716.157l14.014-10.113-14.014-10.115a11.679,11.679,0,0,0-15.954,4.274,11.681,11.681,0,0,0,4.274,15.955,11.681,11.681,0,0,0,11.68,0Z" transform="translate(420.462 46.977)" fill="#93b82c"/>
            <path id="パス_1771" data-name="パス 1771" d="M-1853.68,1695.917l-14.021,10.113,14.021,10.115a11.677,11.677,0,0,0,15.95-4.279,11.677,11.677,0,0,0-4.277-15.95,11.684,11.684,0,0,0-11.673,0Z" transform="translate(433.041 46.971)" fill="#93b82c"/>
            <path id="パス_1772" data-name="パス 1772" d="M-1919.141,1736.423l19.607-14.147-19.607-14.139a16.33,16.33,0,0,0-22.31,5.977,16.331,16.331,0,0,0,5.977,22.309A16.333,16.333,0,0,0-1919.141,1736.423Z" transform="translate(382.648 54.664)" fill="#93b82c"/>
            <path id="パス_1773" data-name="パス 1773" d="M-1952.779,1759.543a11.679,11.679,0,0,0,11.68,11.678,11.68,11.68,0,0,0,5.841-1.565l14.012-10.113-14.012-10.115a11.681,11.681,0,0,0-15.956,4.276A11.7,11.7,0,0,0-1952.779,1759.543Z" transform="translate(376.585 82.478)" fill="#93b82c"/>
            <path id="パス_1774" data-name="パス 1774" d="M-1913.962,1771.208a11.675,11.675,0,0,0,11.67-11.685,11.676,11.676,0,0,0-11.683-11.67,11.688,11.688,0,0,0-5.828,1.562l-14.02,10.115,14.02,10.113A11.676,11.676,0,0,0-1913.962,1771.208Z" transform="translate(389.164 82.473)" fill="#93b82c"/>
            <path id="パス_1775" data-name="パス 1775" d="M-1910.614,1689.238a16.339,16.339,0,0,0-16.333,16.341,16.358,16.358,0,0,0,2.186,8.16l14.147,19.6,14.147-19.6a16.331,16.331,0,0,0-5.971-22.31A16.349,16.349,0,0,0-1910.614,1689.238Z" transform="translate(393.727 43.577)" fill="#93b82c"/>
            <path id="パス_1776" data-name="パス 1776" d="M-1917.487,1747.594a11.679,11.679,0,0,0-11.68-11.677,11.679,11.679,0,0,0-11.677,11.681,11.669,11.669,0,0,0,1.563,5.836l10.113,14.015,10.114-14.015A11.67,11.67,0,0,0-1917.487,1747.594Z" transform="translate(384.504 74.552)" fill="#93b82c"/>
            <path id="パス_1777" data-name="パス 1777" d="M-2062.153,1809.965a17.486,17.486,0,0,0-17.482-17.488,17.483,17.483,0,0,0-8.745,2.343l-20.988,15.138,15.137-20.976a17.487,17.487,0,0,0-6.4-23.889,17.486,17.486,0,0,0-23.889,6.4,17.486,17.486,0,0,0,0,17.487l15.145,20.988h0l21,15.142a17.482,17.482,0,0,0,23.883-6.393,17.475,17.475,0,0,0,2.344-8.752Z" transform="translate(261.064 92.356)" fill="#93b82c"/>
            <path id="パス_1778" data-name="パス 1778" d="M-1980.328,1819.235a11.438,11.438,0,0,0,11.437-11.439,11.437,11.437,0,0,0-11.437-11.437,11.453,11.453,0,0,0-5.721,1.532l-13.733,9.908,9.907-13.733a11.436,11.436,0,0,0-4.183-15.625,11.44,11.44,0,0,0-15.626,4.183,11.44,11.44,0,0,0,0,11.442l9.9,13.735h0l13.735,9.9A11.431,11.431,0,0,0-1980.328,1819.235Z" transform="translate(337.806 101.753)" fill="#93b82c"/>
            <path id="パス_1779" data-name="パス 1779" d="M-2079.743,1804.965a16.333,16.333,0,0,0-16.334,16.332,16.332,16.332,0,0,0,16.332,16.334,16.333,16.333,0,0,0,8.168-2.189l19.607-14.147-19.607-14.141A16.321,16.321,0,0,0-2079.743,1804.965Z" transform="translate(281.495 120.372)" fill="#93b82c"/>
            <path id="パス_1780" data-name="パス 1780" d="M-2116.773,1756.226l-18.263-13.181a15.219,15.219,0,0,0-20.79,5.57,15.218,15.218,0,0,0,5.57,20.79,15.222,15.222,0,0,0,15.22,0Z" transform="translate(240.492 77.928)" fill="#93b82c"/>
            <path id="パス_1781" data-name="パス 1781" d="M-2049.964,1807.139l-19.6,14.147,19.6,14.14a16.331,16.331,0,0,0,22.312-5.976,16.333,16.333,0,0,0-5.976-22.312A16.339,16.339,0,0,0-2049.964,1807.139Z" transform="translate(299.089 120.362)" fill="#93b82c"/>
            <path id="パス_1782" data-name="パス 1782" d="M-2155.219,1794.319l-14.021,10.113,14.021,10.114a11.678,11.678,0,0,0,15.952-4.275,11.678,11.678,0,0,0-4.277-15.952A11.672,11.672,0,0,0-2155.219,1794.319Z" transform="translate(232.945 112.269)" fill="#93b82c"/>
            <path id="パス_1783" data-name="パス 1783" d="M-2011.47,1788.61a11.441,11.441,0,0,0-11.445,11.439,11.442,11.442,0,0,0,11.439,11.445,11.454,11.454,0,0,0,5.726-1.534l13.729-9.908-13.729-9.91A11.446,11.446,0,0,0-2011.47,1788.61Z" transform="translate(330.044 109.519)" fill="#93b82c"/>
            <path id="パス_1784" data-name="パス 1784" d="M-2043.742,1739.825a17.49,17.49,0,0,0-17.492,17.486,17.488,17.488,0,0,0,17.484,17.492,17.485,17.485,0,0,0,8.751-2.344l20.988-15.145L-2035,1742.168A17.486,17.486,0,0,0-2043.742,1739.825Z" transform="translate(304.616 77.146)" fill="#93b82c"/>
            <path id="パス_1785" data-name="パス 1785" d="M-2127.25,1780.634a17.489,17.489,0,0,0-17.491,17.484,17.488,17.488,0,0,0,17.484,17.491,17.487,17.487,0,0,0,8.745-2.342l20.995-15.147-20.995-15.146A17.5,17.5,0,0,0-2127.25,1780.634Z" transform="translate(249.203 104.226)" fill="#93b82c"/>
            <path id="パス_1786" data-name="パス 1786" d="M-2251.139,1753.448a11.678,11.678,0,0,0-4.277-15.952,11.673,11.673,0,0,0-11.678,0l-14.016,10.115,14.016,10.113a11.678,11.678,0,0,0,15.954-4.275Z" transform="translate(158.71 74.562)" fill="#93b82c"/>
            <path id="パス_1787" data-name="パス 1787" d="M-2262.31,1761.114a11.679,11.679,0,0,0-11.677,11.68,11.678,11.678,0,0,0,11.679,11.678,11.663,11.663,0,0,0,5.839-1.565l14.016-10.113-14.016-10.115A11.685,11.685,0,0,0-2262.31,1761.114Z" transform="translate(163.437 91.273)" fill="#93b82c"/>
            <path id="パス_1788" data-name="パス 1788" d="M-2270.616,1725.552a11.677,11.677,0,0,0-15.952,4.281,11.678,11.678,0,0,0,0,11.675l10.114,14.016,10.113-14.016A11.679,11.679,0,0,0-2270.616,1725.552Z" transform="translate(154.052 66.636)" fill="#93b82c"/>
            <path id="パス_1789" data-name="パス 1789" d="M-2374.835,1698.421a11.68,11.68,0,0,0,15.954-4.275,11.678,11.678,0,0,0-4.275-15.954,11.678,11.678,0,0,0-11.678,0l-14.014,10.113Z" transform="translate(87.217 35.209)" fill="#93b82c"/>
            <path id="パス_1790" data-name="パス 1790" d="M-2191.749,1794.049l-20.993,15.137,15.146-20.986a17.488,17.488,0,0,0-6.4-23.887,17.487,17.487,0,0,0-23.889,6.4,17.488,17.488,0,0,0,0,17.484l15.147,20.988h0l20.995,15.147a17.487,17.487,0,0,0,23.889-6.4,17.488,17.488,0,0,0-6.4-23.891,17.488,17.488,0,0,0-17.492,0Z" transform="translate(192.473 91.839)" fill="#93b82c"/>
            <path id="パス_1791" data-name="パス 1791" d="M-2235.169,1784.465a11.68,11.68,0,0,0,11.674-11.683,11.68,11.68,0,0,0-11.683-11.673,11.671,11.671,0,0,0-5.831,1.564l-14.022,10.113,14.022,10.115A11.687,11.687,0,0,0-2235.169,1784.465Z" transform="translate(176.015 91.269)" fill="#93b82c"/>
            <path id="パス_1792" data-name="パス 1792" d="M-2176.519,1792.767a11.679,11.679,0,0,0-11.677,11.682,11.679,11.679,0,0,0,11.682,11.675,11.672,11.672,0,0,0,5.836-1.564l14.014-10.115-14.014-10.115A11.691,11.691,0,0,0-2176.519,1792.767Z" transform="translate(220.367 112.277)" fill="#93b82c"/>
            <path id="パス_1793" data-name="パス 1793" d="M-2230.611,1779.856a17.488,17.488,0,0,0-17.493,17.484,17.489,17.489,0,0,0,17.484,17.494,17.5,17.5,0,0,0,8.751-2.344l20.988-15.147-20.988-15.145A17.507,17.507,0,0,0-2230.611,1779.856Z" transform="translate(180.612 103.71)" fill="#93b82c"/>
            <path id="パス_1794" data-name="パス 1794" d="M-1760.526,1787.675a11.679,11.679,0,0,0-15.954,4.277,11.684,11.684,0,0,0,0,11.678l10.115,14.017,10.116-14.019A11.682,11.682,0,0,0-1760.526,1787.675Z" transform="translate(492.537 107.859)" fill="#93b82c"/>
            <path id="パス_1795" data-name="パス 1795" d="M-1798.192,1788.05l-17.1,12.339,17.1,12.337a14.244,14.244,0,0,0,19.459-5.215,14.246,14.246,0,0,0-5.215-19.461A14.249,14.249,0,0,0-1798.192,1788.05Z" transform="translate(467.819 107.881)" fill="#93b82c"/>
            <path id="パス_1796" data-name="パス 1796" d="M-1795.366,1785.834a14.244,14.244,0,0,0-14.237-14.252,14.249,14.249,0,0,0-14.254,14.239,14.247,14.247,0,0,0,1.91,7.13l12.339,17.1,12.335-17.1A14.232,14.232,0,0,0-1795.366,1785.834Z" transform="translate(462.135 98.219)" fill="#93b82c"/>
            <path id="パス_1797" data-name="パス 1797" d="M-1824.171,1786.153a14.247,14.247,0,0,0-14.247,14.247,14.249,14.249,0,0,0,14.247,14.249,14.248,14.248,0,0,0,7.125-1.91l17.1-12.339-17.1-12.337A14.261,14.261,0,0,0-1824.171,1786.153Z" transform="translate(452.473 107.888)" fill="#93b82c"/>
            <path id="パス_1798" data-name="パス 1798" d="M-1837.626,1721.213a17.49,17.49,0,0,0-23.891,6.4,17.49,17.49,0,0,0,6.4,23.891,17.489,17.489,0,0,0,17.489,0l20.988-15.145Z" transform="translate(435.588 63.238)" fill="#93b82c"/>
            <path id="パス_1799" data-name="パス 1799" d="M-1857.4,1775.742l-20.991,15.139,15.144-20.988a17.487,17.487,0,0,0-6.405-23.887,17.486,17.486,0,0,0-23.887,6.4,17.487,17.487,0,0,0,0,17.484l15.145,20.988h0l20.994,15.147a17.485,17.485,0,0,0,23.887-6.4,17.487,17.487,0,0,0-6.4-23.89A17.486,17.486,0,0,0-1857.4,1775.742Z" transform="translate(414.342 79.691)" fill="#93b82c"/>
            <path id="パス_1800" data-name="パス 1800" d="M-1751.165,1798.056a11.687,11.687,0,0,0-5.842,1.565l-14.015,10.115,14.015,10.113a11.678,11.678,0,0,0,15.954-4.274,11.678,11.678,0,0,0-4.274-15.954,11.675,11.675,0,0,0-5.838-1.565Z" transform="translate(497.195 115.787)" fill="#93b82c"/>
            <path id="パス_1801" data-name="パス 1801" d="M-2301.176,1757.748a16.339,16.339,0,0,0-8.167,2.189l-19.607,14.141,19.607,14.147a16.332,16.332,0,0,0,22.312-5.976,16.333,16.333,0,0,0-5.976-22.312A16.346,16.346,0,0,0-2301.176,1757.748Z" transform="translate(126.965 89.039)" fill="#93b82c"/>
            <path id="パス_1802" data-name="パス 1802" d="M-1772.461,1799.609a11.68,11.68,0,0,0-15.954,4.275,11.679,11.679,0,0,0,4.274,15.954,11.682,11.682,0,0,0,11.68,0l14.019-10.113Z" transform="translate(484.614 115.778)" fill="#93b82c"/>
            <path id="パス_1803" data-name="パス 1803" d="M-1909.435,1792.837l-18.268,13.179,18.268,13.174a15.216,15.216,0,0,0,20.785-5.57,15.213,15.213,0,0,0-5.57-20.783,15.213,15.213,0,0,0-15.215,0Z" transform="translate(393.225 110.971)" fill="#93b82c"/>
            <path id="パス_1804" data-name="パス 1804" d="M-1945.888,1769.472a15.217,15.217,0,0,0-15.219-15.212,15.216,15.216,0,0,0-15.212,15.218,15.207,15.207,0,0,0,2.038,7.6l13.172,18.27,13.181-18.27A15.215,15.215,0,0,0-1945.888,1769.472Z" transform="translate(360.965 86.724)" fill="#93b82c"/>
            <path id="パス_1805" data-name="パス 1805" d="M-1957.622,1815.047l-13.733,9.908,9.906-13.733a11.437,11.437,0,0,0-4.182-15.626,11.439,11.439,0,0,0-15.626,4.184,11.439,11.439,0,0,0,0,11.442l9.9,13.735h0l13.733,9.9a11.438,11.438,0,0,0,15.626-4.184,11.44,11.44,0,0,0-4.184-15.626,11.439,11.439,0,0,0-11.442,0Z" transform="translate(356.67 113.136)" fill="#93b82c"/>
            <path id="パス_1806" data-name="パス 1806" d="M-1926.083,1785.031a15.218,15.218,0,0,0-15.217-15.219,15.218,15.218,0,0,0-7.608,2.038l-18.268,13.181,18.268,13.172a15.212,15.212,0,0,0,20.783-5.56A15.214,15.214,0,0,0-1926.083,1785.031Z" transform="translate(367.032 97.045)" fill="#93b82c"/>
            <path id="パス_1807" data-name="パス 1807" d="M-1906.416,1790.459a15.217,15.217,0,0,0-15.219-15.212,15.215,15.215,0,0,0-15.212,15.219,15.217,15.217,0,0,0,2.038,7.6l13.172,18.266,13.181-18.268A15.215,15.215,0,0,0-1906.416,1790.459Z" transform="translate(387.158 100.651)" fill="#93b82c"/>
            <path id="パス_1808" data-name="パス 1808" d="M-1983.044,1805.764a11.441,11.441,0,0,0-11.442,11.442,11.443,11.443,0,0,0,11.442,11.441,11.45,11.45,0,0,0,5.719-1.532l13.729-9.91-13.729-9.908A11.447,11.447,0,0,0-1983.044,1805.764Z" transform="translate(348.909 120.902)" fill="#93b82c"/>
            <path id="パス_1809" data-name="パス 1809" d="M-1937.182,1790.809a15.221,15.221,0,0,0-15.217,15.22,15.22,15.22,0,0,0,15.22,15.217,15.241,15.241,0,0,0,7.6-2.036l18.261-13.179-18.261-13.181A15.23,15.23,0,0,0-1937.182,1790.809Z" transform="translate(376.837 110.978)" fill="#93b82c"/>
            <path id="パス_1810" data-name="パス 1810" d="M-1896.26,1761.549a17.489,17.489,0,0,0-17.494,17.483,17.49,17.49,0,0,0,17.485,17.494,17.471,17.471,0,0,0,8.75-2.344l20.99-15.145-20.99-15.147A17.48,17.48,0,0,0-1896.26,1761.549Z" transform="translate(402.481 91.561)" fill="#93b82c"/>
            <path id="パス_1811" data-name="パス 1811" d="M-2282.549,1737.487a11.677,11.677,0,0,0-15.954,4.274,11.678,11.678,0,0,0,4.273,15.954,11.674,11.674,0,0,0,11.68,0l14.021-10.113Z" transform="translate(146.129 74.554)" fill="#93b82c"/>
            <path id="パス_1812" data-name="パス 1812" d="M-2467.055,1787.132a14.243,14.243,0,0,0,19.458-5.216,14.246,14.246,0,0,0-5.215-19.461,14.247,14.247,0,0,0-14.243,0l-17.1,12.339Z" transform="translate(23.973 90.897)" fill="#93b82c"/>
            <path id="パス_1813" data-name="パス 1813" d="M-2465.8,1737.03h0l15.145-20.986a17.489,17.489,0,0,0-6.4-23.889,17.49,17.49,0,0,0-23.889,6.4,17.491,17.491,0,0,0,0,17.486l15.138,20.986-20.989-15.144a17.493,17.493,0,0,0-23.9,6.4,17.494,17.494,0,0,0,6.4,23.9,17.5,17.5,0,0,0,17.5,0Z" transform="translate(4.802 43.957)" fill="#93b82c"/>
            <path id="パス_1814" data-name="パス 1814" d="M-2439.766,1733.93a17.49,17.49,0,0,0-6.4-23.889,17.485,17.485,0,0,0-17.483,0l-21,15.145,21,15.145a17.482,17.482,0,0,0,23.883-6.4Z" transform="translate(23.644 55.827)" fill="#93b82c"/>
            <path id="パス_1815" data-name="パス 1815" d="M-2437.9,1762.743a11.443,11.443,0,0,0,15.633-4.184,11.443,11.443,0,0,0-4.186-15.633,11.441,11.441,0,0,0-11.447,0l-13.731,9.908Z" transform="translate(45.559 78.185)" fill="#93b82c"/>
            <path id="パス_1816" data-name="パス 1816" d="M-2439.3,1760.585h0l9.9-13.736a11.439,11.439,0,0,0-4.186-15.624,11.436,11.436,0,0,0-15.623,4.187,11.431,11.431,0,0,0,0,11.437l9.907,13.733-13.733-9.908a11.439,11.439,0,0,0-15.629,4.179,11.438,11.438,0,0,0,4.179,15.629,11.438,11.438,0,0,0,11.45,0Z" transform="translate(33.233 70.421)" fill="#93b82c"/>
            <path id="パス_1817" data-name="パス 1817" d="M-2418.16,1719.283l-17.1-12.337a14.244,14.244,0,0,0-19.46,5.214,14.243,14.243,0,0,0,5.211,19.461,14.243,14.243,0,0,0,14.249,0l17.1-12.337h0l12.339-17.1a14.246,14.246,0,0,0-5.217-19.459,14.244,14.244,0,0,0-19.458,5.217,14.245,14.245,0,0,0,0,14.242Z" transform="translate(42.236 37.987)" fill="#93b82c"/>
            <path id="パス_1818" data-name="パス 1818" d="M-2444.855,1834.693l13.174-18.268a15.213,15.213,0,0,0-5.571-20.782,15.213,15.213,0,0,0-20.781,5.57,15.213,15.213,0,0,0,0,15.212Z" transform="translate(39.954 112.832)" fill="#93b82c"/>
            <path id="パス_1819" data-name="パス 1819" d="M-2416.406,1721.97a14.247,14.247,0,0,0,19.462-5.214,14.248,14.248,0,0,0-5.214-19.462,14.25,14.25,0,0,0-14.248,0l-17.1,12.337Z" transform="translate(57.583 47.656)" fill="#93b82c"/>
            <path id="パス_1820" data-name="パス 1820" d="M-2313.2,1801.663a11.678,11.678,0,0,0-5.843,1.565l-14.016,10.113,14.016,10.115a11.679,11.679,0,0,0,15.953-4.274,11.679,11.679,0,0,0-4.273-15.955,11.675,11.675,0,0,0-5.837-1.564Z" transform="translate(124.235 118.18)" fill="#93b82c"/>
            <path id="パス_1821" data-name="パス 1821" d="M-2488.937,1756.977a16.333,16.333,0,0,0-5.972-22.312,16.332,16.332,0,0,0-16.34,0l-9.033,6.515v15.255l9.033,6.518a16.334,16.334,0,0,0,22.312-5.977Z" transform="translate(0 72.269)" fill="#93b82c"/>
            <path id="パス_1822" data-name="パス 1822" d="M-2396.129,1699.974a11.678,11.678,0,0,0,5.839-1.563l14.022-10.116-14.022-10.113a11.679,11.679,0,0,0-15.952,4.277,11.678,11.678,0,0,0,4.277,15.952A11.67,11.67,0,0,0-2396.129,1699.974Z" transform="translate(74.637 35.201)" fill="#93b82c"/>
            <path id="パス_1823" data-name="パス 1823" d="M-2421.2,1726.228a16.333,16.333,0,0,0,5.981,22.31,16.326,16.326,0,0,0,16.331,0l19.6-14.142-19.6-14.146A16.332,16.332,0,0,0-2421.2,1726.228Z" transform="translate(64.296 62.702)" fill="#93b82c"/>
            <path id="パス_1824" data-name="パス 1824" d="M-2378.354,1666.245a11.678,11.678,0,0,0-15.952,4.277,11.676,11.676,0,0,0,0,11.679l10.116,14.015,10.112-14.015a11.681,11.681,0,0,0-4.275-15.954Z" transform="translate(82.557 27.281)" fill="#93b82c"/>
            <path id="パス_1825" data-name="パス 1825" d="M-2389.354,1743.6a17.488,17.488,0,0,0-23.888,6.4,17.492,17.492,0,0,0,0,17.488l15.145,20.986-20.992-15.138a17.485,17.485,0,0,0-23.886,6.4,17.487,17.487,0,0,0,6.4,23.887,17.481,17.481,0,0,0,17.486,0l20.995-15.147h0l15.145-20.988a17.49,17.49,0,0,0-6.4-23.891Z" transform="translate(49.744 78.094)" fill="#93b82c"/>
            <path id="パス_1826" data-name="パス 1826" d="M-2449.416,1696.469a15.219,15.219,0,0,0,20.788-5.572,15.219,15.219,0,0,0-5.571-20.788,15.217,15.217,0,0,0-15.217,0l-18.263,13.181Z" transform="translate(34.906 29.531)" fill="#93b82c"/>
            <path id="パス_1827" data-name="パス 1827" d="M-2515.245,1679.235a11.64,11.64,0,0,0-5.036-1.512V1708.1l9.315-12.91a11.68,11.68,0,0,0-4.277-15.954Z" transform="translate(0.001 35.936)" fill="#93b82c"/>
            <path id="パス_1828" data-name="パス 1828" d="M-2491.11,1707.153a11.679,11.679,0,0,0-4.278-15.952,11.674,11.674,0,0,0-11.678,0l-13.214,9.536v1.155l13.214,9.536a11.682,11.682,0,0,0,15.957-4.277Z" transform="translate(0.001 43.842)" fill="#93b82c"/>
            <path id="パス_1829" data-name="パス 1829" d="M-2520.281,1718.116v25.546l3.57-4.949A16.33,16.33,0,0,0-2520.281,1718.116Z" transform="translate(0.001 62.74)" fill="#93b82c"/>
            <path id="パス_1830" data-name="パス 1830" d="M-2453.7,1809.37a11.441,11.441,0,0,0-4.194-15.629,11.442,11.442,0,0,0-11.437,0l-13.729,9.91,13.729,9.908A11.443,11.443,0,0,0-2453.7,1809.37Z" transform="translate(24.702 111.907)" fill="#93b82c"/>
            <path id="パス_1831" data-name="パス 1831" d="M-2425.057,1809.168a15.2,15.2,0,0,0-7.606,2.038l-18.263,13.179,18.263,13.181a15.22,15.22,0,0,0,20.787-5.578,15.22,15.22,0,0,0-5.578-20.786,15.242,15.242,0,0,0-7.6-2.036Z" transform="translate(46.023 123.158)" fill="#93b82c"/>
            <path id="パス_1832" data-name="パス 1832" d="M-2370.36,1783.492a15.217,15.217,0,0,0-20.788,5.566,15.22,15.22,0,0,0,5.566,20.788,15.217,15.217,0,0,0,15.222,0l18.268-13.174Z" transform="translate(84.335 104.766)" fill="#93b82c"/>
            <path id="パス_1833" data-name="パス 1833" d="M-2452.8,1811.2a15.216,15.216,0,0,0-20.788,5.565,15.216,15.216,0,0,0,5.565,20.788,15.219,15.219,0,0,0,15.223,0l18.268-13.172Z" transform="translate(29.63 123.15)" fill="#93b82c"/>
            <path id="パス_1834" data-name="パス 1834" d="M-2372.05,1785.379a17.491,17.491,0,0,0-6.4-23.892,17.488,17.488,0,0,0-17.489,0l-20.988,15.146,20.988,15.147a17.49,17.49,0,0,0,23.891-6.4Z" transform="translate(68.583 89.965)" fill="#93b82c"/>
            <path id="パス_1835" data-name="パス 1835" d="M-2322.566,1791.281a11.68,11.68,0,0,0-15.954,4.277,11.683,11.683,0,0,0,0,11.678l10.115,14.016,10.116-14.017A11.681,11.681,0,0,0-2322.566,1791.281Z" transform="translate(119.577 110.252)" fill="#93b82c"/>
            <path id="パス_1836" data-name="パス 1836" d="M-2334.5,1803.216a11.68,11.68,0,0,0-15.954,4.274,11.678,11.678,0,0,0,4.274,15.954,11.674,11.674,0,0,0,11.68,0l14.019-10.111Z" transform="translate(111.654 118.171)" fill="#93b82c"/>
            <path id="パス_1837" data-name="パス 1837" d="M-2461.609,1693.6l13.172-18.27a15.214,15.214,0,0,0-5.568-20.783,15.216,15.216,0,0,0-20.785,5.568,15.22,15.22,0,0,0,0,15.215Z" transform="translate(28.836 19.202)" fill="#93b82c"/>
            <path id="パス_1838" data-name="パス 1838" d="M-2329.433,1804.289a15.22,15.22,0,0,0-5.572-20.788,15.219,15.219,0,0,0-15.22,0l-18.261,13.177,18.261,13.181a15.22,15.22,0,0,0,20.79-5.57Z" transform="translate(100.729 104.776)" fill="#93b82c"/>
            <path id="パス_1839" data-name="パス 1839" d="M-2489.229,1639.582a11.677,11.677,0,0,0-15.95,4.279,11.678,11.678,0,0,0,0,11.677l10.113,14.016,10.115-14.016a11.678,11.678,0,0,0-4.277-15.954Z" transform="translate(8.985 9.588)" fill="#93b82c"/>
            <path id="パス_1840" data-name="パス 1840" d="M-2485.708,1671.757a11.681,11.681,0,0,0,15.956-4.272,11.681,11.681,0,0,0-4.274-15.955,11.683,11.683,0,0,0-11.682,0l-14.016,10.113Z" transform="translate(13.642 17.516)" fill="#93b82c"/>
            <path id="パス_1841" data-name="パス 1841" d="M-2470.732,1811.4l9.9-13.735a11.437,11.437,0,0,0-4.184-15.624,11.439,11.439,0,0,0-15.626,4.182,11.44,11.44,0,0,0,0,11.442l9.908,13.733-13.733-9.908a11.441,11.441,0,0,0-15.628,4.184,11.438,11.438,0,0,0,4.184,15.626,11.435,11.435,0,0,0,11.444,0Z" transform="translate(12.377 104.141)" fill="#93b82c"/>
            <path id="パス_1842" data-name="パス 1842" d="M-2490.337,1675.667a15.211,15.211,0,0,0,5.557,20.783,15.213,15.213,0,0,0,15.227,0l18.268-13.172-18.268-13.18a15.214,15.214,0,0,0-20.784,5.568Z" transform="translate(18.514 29.521)" fill="#93b82c"/>
            <path id="パス_1843" data-name="パス 1843" d="M-2507,1673.31a11.678,11.678,0,0,0,5.839-1.564l14.021-10.116-14.021-10.111a11.676,11.676,0,0,0-15.949,4.281,11.676,11.676,0,0,0,4.281,15.949A11.674,11.674,0,0,0-2507,1673.31Z" transform="translate(1.064 17.509)" fill="#93b82c"/>
            <path id="パス_1844" data-name="パス 1844" d="M-2485.909,1796.781l17.1-12.337h0l12.337-17.1a14.243,14.243,0,0,0-5.219-19.456,14.243,14.243,0,0,0-19.457,5.219,14.25,14.25,0,0,0,0,14.237l12.338,17.1-17.1-12.339a14.247,14.247,0,0,0-19.462,5.215,14.246,14.246,0,0,0,5.213,19.461,14.249,14.249,0,0,0,14.249,0Z" transform="translate(8.627 81.229)" fill="#93b82c"/>
            <path id="パス_1845" data-name="パス 1845" d="M-2512.9,1774.716a17.474,17.474,0,0,0-7.378,1.644v31.686a17.482,17.482,0,0,0,23.231-8.462,17.481,17.481,0,0,0-8.463-23.23A17.5,17.5,0,0,0-2512.9,1774.716Z" transform="translate(0.001 100.299)" fill="#93b82c"/>
          </g>
        </g>
      </g>
    </g>
    <g id="グループ_2070" data-name="グループ 2070" transform="translate(-1634 -37)">
      <g id="グループ_2059" data-name="グループ 2059" transform="translate(6013.814 -1904.792)">
        <path id="パス_3570" data-name="パス 3570" d="M-5486.815,6242.094a8.91,8.91,0,0,1,4.139.955,6.9,6.9,0,0,1,2.874,2.671,7.5,7.5,0,0,1,1.016,3.889,7.842,7.842,0,0,1-.976,3.966,6.854,6.854,0,0,1-2.877,2.688,8.934,8.934,0,0,1-4.176.984,8.832,8.832,0,0,1-4.17-.984,6.867,6.867,0,0,1-2.853-2.687,7.851,7.851,0,0,1-.975-3.966,7.423,7.423,0,0,1,1.032-3.915,7.007,7.007,0,0,1,2.873-2.655A8.815,8.815,0,0,1-5486.815,6242.094Zm-3.967,7.516a5.346,5.346,0,0,0,1.069,3.489,3.522,3.522,0,0,0,2.865,1.3,3.7,3.7,0,0,0,2.955-1.248,5.334,5.334,0,0,0,1.077-3.578,4.964,4.964,0,0,0-1.085-3.428,3.758,3.758,0,0,0-2.946-1.211,3.561,3.561,0,0,0-2.842,1.28A5.041,5.041,0,0,0-5490.783,6249.609Z" transform="translate(0 4.522)" fill="#fffcf3"/>
        <path id="パス_3571" data-name="パス 3571" d="M-5478.083,6239.381a8.008,8.008,0,0,1,1.38.127,4.654,4.654,0,0,1,1.148.327v3.125a6.5,6.5,0,0,0-1.735-.219,2.715,2.715,0,0,0-2.068.72,3.417,3.417,0,0,0-.68,2.389v1.048h2.5v2.906h-2.5v11.681h-3.842V6249.8h-2.079V6246.9h2.079V6245.8a6.663,6.663,0,0,1,1.586-4.687A5.421,5.421,0,0,1-5478.083,6239.381Z" transform="translate(14.751 0.001)" fill="#fffcf3"/>
        <path id="パス_3573" data-name="パス 3573" d="M-5471.954,6239.668a2.1,2.1,0,0,1,1.534.644,2.091,2.091,0,0,1,.639,1.53,2.147,2.147,0,0,1-.632,1.523,2.054,2.054,0,0,1-1.541.664,2.064,2.064,0,0,1-1.521-.664,2.12,2.12,0,0,1-.647-1.523,2.048,2.048,0,0,1,.655-1.537A2.122,2.122,0,0,1-5471.954,6239.668Zm1.923,6.751v14.586h-3.841v-14.586Z" transform="translate(34.466 0.479)" fill="#fffcf3"/>
        <path id="パス_3574" data-name="パス 3574" d="M-5461.285,6242.094a10.553,10.553,0,0,1,4.61.984v3.265a7.759,7.759,0,0,0-3.873-1.185,4.389,4.389,0,0,0-3.218,1.226,4.426,4.426,0,0,0-1.251,3.319,4.44,4.44,0,0,0,1.259,3.295,4.533,4.533,0,0,0,3.349,1.249,10.827,10.827,0,0,0,4-1.031v3.108a12.242,12.242,0,0,1-4.671.922,8.182,8.182,0,0,1-5.755-2.031,6.977,6.977,0,0,1-2.209-5.388,7.508,7.508,0,0,1,2.165-5.609A7.65,7.65,0,0,1-5461.285,6242.094Z" transform="translate(42.923 4.522)" fill="#fffcf3"/>
        <path id="パス_3575" data-name="パス 3575" d="M-5458.766,6239.668a2.1,2.1,0,0,1,1.533.644,2.085,2.085,0,0,1,.639,1.53,2.147,2.147,0,0,1-.631,1.523,2.054,2.054,0,0,1-1.541.664,2.063,2.063,0,0,1-1.522-.664,2.119,2.119,0,0,1-.648-1.523,2.048,2.048,0,0,1,.656-1.537A2.123,2.123,0,0,1-5458.766,6239.668Zm1.922,6.751v14.586h-3.841v-14.586Z" transform="translate(56.437 0.479)" fill="#fffcf3"/>
        <path id="パス_3576" data-name="パス 3576" d="M-5449.718,6242.094a6.722,6.722,0,0,1,4.294,1.194,4.04,4.04,0,0,1,1.486,3.334v7.14c0,.552.224.829.671.829a2.063,2.063,0,0,0,.79-.243,3.5,3.5,0,0,0,.851-.555v2.218a7.184,7.184,0,0,1-3.687,1.235,3.011,3.011,0,0,1-1.582-.344,1.874,1.874,0,0,1-.774-1.218,7.6,7.6,0,0,1-4.423,1.563,3.819,3.819,0,0,1-2.708-1.063,3.373,3.373,0,0,1-1.133-2.546,3.975,3.975,0,0,1,1.125-2.982,9.565,9.565,0,0,1,3.936-1.907l3.108-.906v-.67q0-2.143-2.592-2.141a6.238,6.238,0,0,0-2.638.607,7.488,7.488,0,0,0-2.391,1.8v-3.452A8.877,8.877,0,0,1-5449.718,6242.094Zm-2.343,10.967a1.688,1.688,0,0,0,.509,1.28,1.751,1.751,0,0,0,1.256.486,3.784,3.784,0,0,0,2.53-1.158v-3.841a17.9,17.9,0,0,0-2.522,1.028,4.662,4.662,0,0,0-1.343.984A1.812,1.812,0,0,0-5452.062,6253.061Z" transform="translate(64.766 4.522)" fill="#fffcf3"/>
        <path id="パス_3577" data-name="パス 3577" d="M-5443.55,6239.488v21.82h-3.841v-21.82Z" transform="translate(79.001 0.177)" fill="#fffcf3"/>
        <path id="パス_3578" data-name="パス 3578" d="M-5427.757,6242.2v2.717h-2.5a5.268,5.268,0,0,1,.853,1.381,3.82,3.82,0,0,1,.239,1.366,4.682,4.682,0,0,1-1.31,3.2,6.408,6.408,0,0,1-3.967,1.639,7.422,7.422,0,0,0-2.008.43.785.785,0,0,0-.493.74c0,.305.2.537.6.7a9.79,9.79,0,0,0,1.93.462,11.972,11.972,0,0,1,4.849,1.623,3.378,3.378,0,0,1,1.555,2.89,4,4,0,0,1-1.891,3.554,9.892,9.892,0,0,1-5.435,1.243,10.477,10.477,0,0,1-5.342-1.17,3.537,3.537,0,0,1-1.985-3.142q0-2.777,3.826-3.841-1.655-.721-1.656-1.891,0-1.531,2.5-2.108v-.063a5.247,5.247,0,0,1-2.71-1.671,4.254,4.254,0,0,1-1.009-2.814,4.656,4.656,0,0,1,1.782-3.8,7.144,7.144,0,0,1,4.653-1.445Zm-11.325,17.461q0,1.957,3.9,1.954a5.457,5.457,0,0,0,2.65-.537,1.606,1.606,0,0,0,.959-1.417,1.569,1.569,0,0,0-1.085-1.458,7.668,7.668,0,0,0-3.071-.493,4.7,4.7,0,0,0-2.42.554A1.618,1.618,0,0,0-5439.082,6259.661Zm.919-12.182a2.5,2.5,0,0,0,.806,1.9,2.744,2.744,0,0,0,1.958.755,2.6,2.6,0,0,0,1.954-.789,2.744,2.744,0,0,0,.765-1.991,2.341,2.341,0,0,0-.8-1.8,2.745,2.745,0,0,0-1.923-.728,2.7,2.7,0,0,0-1.958.788A2.533,2.533,0,0,0-5438.163,6247.479Z" transform="translate(86.883 4.698)" fill="#fffcf3"/>
        <path id="パス_3579" data-name="パス 3579" d="M-5426.187,6242.094a8.906,8.906,0,0,1,4.14.955,6.9,6.9,0,0,1,2.873,2.671,7.475,7.475,0,0,1,1.017,3.889,7.827,7.827,0,0,1-.976,3.966,6.845,6.845,0,0,1-2.874,2.688,8.944,8.944,0,0,1-4.18.984,8.841,8.841,0,0,1-4.17-.984,6.851,6.851,0,0,1-2.849-2.687,7.828,7.828,0,0,1-.979-3.966,7.424,7.424,0,0,1,1.033-3.915,7,7,0,0,1,2.873-2.655A8.811,8.811,0,0,1-5426.187,6242.094Zm-3.966,7.516a5.328,5.328,0,0,0,1.071,3.489,3.519,3.519,0,0,0,2.866,1.3,3.693,3.693,0,0,0,2.951-1.248,5.311,5.311,0,0,0,1.077-3.578,4.95,4.95,0,0,0-1.084-3.428,3.749,3.749,0,0,0-2.943-1.211,3.565,3.565,0,0,0-2.845,1.28A5.046,5.046,0,0,0-5430.154,6249.609Z" transform="translate(100.999 4.522)" fill="#fffcf3"/>
        <path id="パス_3580" data-name="パス 3580" d="M-5416.969,6242.094a8.9,8.9,0,0,1,4.139.955,6.907,6.907,0,0,1,2.875,2.671,7.493,7.493,0,0,1,1.015,3.889,7.842,7.842,0,0,1-.976,3.966,6.839,6.839,0,0,1-2.874,2.688,8.948,8.948,0,0,1-4.18.984,8.822,8.822,0,0,1-4.169-.984,6.876,6.876,0,0,1-2.853-2.687,7.827,7.827,0,0,1-.976-3.966,7.432,7.432,0,0,1,1.032-3.915,7.01,7.01,0,0,1,2.874-2.655A8.814,8.814,0,0,1-5416.969,6242.094Zm-3.967,7.516a5.351,5.351,0,0,0,1.068,3.489,3.523,3.523,0,0,0,2.867,1.3,3.7,3.7,0,0,0,2.953-1.248,5.329,5.329,0,0,0,1.078-3.578,4.959,4.959,0,0,0-1.085-3.428,3.756,3.756,0,0,0-2.945-1.211,3.561,3.561,0,0,0-2.842,1.28A5.046,5.046,0,0,0-5420.936,6249.609Z" transform="translate(116.358 4.522)" fill="#fffcf3"/>
        <path id="パス_3581" data-name="パス 3581" d="M-5405.124,6247.049v-7.562h3.826v21.82h-6.747a7.76,7.76,0,0,1-5.6-2.012,7.262,7.262,0,0,1-2.1-5.5,7.349,7.349,0,0,1,.978-3.748,7.016,7.016,0,0,1,2.684-2.647,7.4,7.4,0,0,1,3.7-.962A9.8,9.8,0,0,1-5405.124,6247.049Zm-2.016,11.323h2.016v-8.451a5.369,5.369,0,0,0-2.468-.611,4.04,4.04,0,0,0-3.068,1.207,4.371,4.371,0,0,0-1.149,3.153Q-5411.81,6258.373-5407.14,6258.373Z" transform="translate(131.714 0.177)" fill="#fffcf3"/>
        <path id="パス_3582" data-name="パス 3582" d="M-5401.333,6242.094a8.929,8.929,0,0,1,2.267.275,11.507,11.507,0,0,1,2.247.865v3.077a10.8,10.8,0,0,0-2.343-1.133,6.986,6.986,0,0,0-2.231-.43,2.3,2.3,0,0,0-1.3.314,1.007,1.007,0,0,0-.469.891.893.893,0,0,0,.391.657,14.836,14.836,0,0,0,2.142,1.2,13.052,13.052,0,0,1,3.505,2.336,3.613,3.613,0,0,1,1.008,2.57,4.074,4.074,0,0,1-1.47,3.319,6.059,6.059,0,0,1-3.966,1.209,11.793,11.793,0,0,1-2.914-.344,9.843,9.843,0,0,1-2.242-.829v-3.2a10.277,10.277,0,0,0,4.735,1.562,3.138,3.138,0,0,0,1.591-.352,1.047,1.047,0,0,0,.611-.928,1,1,0,0,0-.218-.627,2.919,2.919,0,0,0-.656-.575c-.294-.2-1.2-.672-2.736-1.424a7.817,7.817,0,0,1-2.607-1.834,3.516,3.516,0,0,1-.844-2.351,3.7,3.7,0,0,1,1.517-3.092A6.4,6.4,0,0,1-5401.333,6242.094Z" transform="translate(146.564 4.522)" fill="#fffcf3"/>
      </g>
      <g id="グループ_2312" data-name="グループ 2312">
        <g id="グループ_2323" data-name="グループ 2323">
          <g id="グループ_2325" data-name="グループ 2325">
            <path id="パス_3524" data-name="パス 3524" d="M0,0H1280" transform="translate(0 4285.5)" fill="none" stroke="#fffcf3" stroke-width="2"/>
            <path id="パス_3526" data-name="パス 3526" d="M0,0H1280" transform="translate(0 4474.5)" fill="none" stroke="#fffcf3" stroke-width="2"/>
            <line id="線_17" data-name="線 17" x2="1280" transform="translate(0 4488.5)" fill="none" stroke="#fffcf3" stroke-width="3"/>
            <path id="パス_3525" data-name="パス 3525" d="M0,0H1280" transform="translate(0 4271.5)" fill="none" stroke="#fffcf3" stroke-width="3"/>
            <g id="グループ_2311" data-name="グループ 2311">
              <g id="グループ_2029" data-name="グループ 2029" transform="translate(518 4376.192)">
                <path id="パス_3328" data-name="パス 3328" d="M-2068.328,1899.87c-.134.313-.27.762-.673.762s-.585-.313-1.034-1.211a8.385,8.385,0,0,0-.449-.945,7.8,7.8,0,0,1-1.035-2.471c0-.585.945-.852,2.022-1.258,4.36-2.338,4.852-2.424,4.852-4v-7.911a1.1,1.1,0,0,0-1.258-1.257h-1.53c-.852,0-1.659.136-2.468.136-1.034,0-.991-.629-.991-2.158,0-1.66-.09-2.245.991-2.245.852,0,1.616.09,2.468.09h1.846c.987,0,2.019-.09,3.053-.09,1.484,0,2.515.4,2.515,2.069,0,1.257-.087,2.514-.087,3.774v6.336c0,2.784.852,4.58,3.638,5.478,3.19,1.034,9.166.944,12.625.944,2.517,0,5.078,0,7.592-.09.675-.046,3.732-.133,4.091-.133.854,0,.9.536.9,1.257a6.753,6.753,0,0,1-.448,2.518c-.313.672-1.168.715-2.694.715h-10.742c-3.549,0-9.885,0-13.074-1.211a7.253,7.253,0,0,1-3.594-2.743,1.134,1.134,0,0,0-.855-.49.984.984,0,0,0-.671.266c-1.214.9-3.146,2.2-4.447,3.1A1.222,1.222,0,0,0-2068.328,1899.87Zm6.022-27.767c-.362,0-.719-.359-.944-.629a65.2,65.2,0,0,0-6.426-6.292c-.316-.27-.629-.539-.629-.944,0-.9,1.976-2.471,2.694-2.471.675,0,3.821,3.013,4.45,3.641.628.585,3.685,3.505,3.685,4.134C-2059.476,1870.393-2061.587,1872.1-2062.306,1872.1Zm12.4.539a1.1,1.1,0,0,0,1.26,1.257h11.547c1.527,0,3.054-.136,4.583-.136.988,0,.944.675.944,2.2,0,1.573.044,2.2-.944,2.2-1.394,0-3.01-.093-4.583-.093h-.315c-.852,0-1.257.362-1.257,1.26v7.19c0,1.976.136,3.951.136,5.93,0,1.8-.585,1.8-2.381,1.8-1.932,0-2.428-.046-2.428-1.709,0-2.022.09-4,.09-6.02v-7.19c0-.9-.359-1.26-1.258-1.26h-4.134c-.9,0-1.168.318-1.3,1.216a33.864,33.864,0,0,1-2.561,12.263c-.675,1.44-1.078,2.069-1.753,2.069-1.034,0-3.416-1.214-3.416-2.425a2.28,2.28,0,0,1,.406-.9c2.334-3.957,2.966-9.348,2.966-13.885v-9.349c0-2.335,1.168-2.245,3.054-2.471,3.911-.449,11.324-1.707,14.65-3.549.177-.089.269-.179.449-.179.582,0,1.48,1.306,1.84,1.755a9.508,9.508,0,0,1,1.573,2.648.508.508,0,0,1-.539.495,1.438,1.438,0,0,1-.585-.182.964.964,0,0,0-.582-.223,2.47,2.47,0,0,0-.539.136,64.923,64.923,0,0,1-12.4,2.923c-2.6.357-2.517.357-2.517,2.917Z" transform="translate(2071.518 -1860.868)" fill="#fffcf3"/>
                <path id="パス_3329" data-name="パス 3329" d="M-2027.825,1895.4h-13.705c-.718,0-1.034.313-1.034,1.034v.449c0,1.258-.449,1.258-2.561,1.258-1.932,0-2.561,0-2.561-1.214,0-1.886.136-3.774.136-5.617v-22.6c0-1.437-.089-2.83-.089-4.267,0-1.8.718-2.338,2.471-2.338,1.3,0,2.6.093,3.954.093h13.12c1.3,0,2.6-.093,3.908-.093,1.707,0,2.471.449,2.471,2.291,0,1.437-.09,2.876-.09,4.314v22.512c0,1.889.136,3.731.136,5.617,0,1.257-.542,1.211-2.561,1.211s-2.564,0-2.564-1.211a1.186,1.186,0,0,1,.046-.4C-2026.794,1895.716-2027.107,1895.4-2027.825,1895.4Zm-.09-19.14a1.289,1.289,0,0,0,1.257-1.26v-7.19a1.287,1.287,0,0,0-1.257-1.257h-13.525a1.287,1.287,0,0,0-1.258,1.257V1875a1.289,1.289,0,0,0,1.258,1.26ZM-2042.7,1889.7a1.287,1.287,0,0,0,1.258,1.257h13.525a1.287,1.287,0,0,0,1.257-1.257v-7.908a1.287,1.287,0,0,0-1.257-1.257h-13.525a1.287,1.287,0,0,0-1.258,1.257Z" transform="translate(2112.544 -1858.737)" fill="#fffcf3"/>
                <path id="パス_3330" data-name="パス 3330" d="M-2014.312,1862.236a7.053,7.053,0,0,1,.808.408c1.031.449,1.572.719,1.572,1.212,0,.359-.405.538-.721.631-.719.223-.719.313-1.121,1.211-2.518,5.661-6.066,11.457-10.65,15.724a2.622,2.622,0,0,1-1.573.944c-.944,0-3.01-1.66-3.01-2.6,0-.5.9-1.171,1.257-1.437a36.671,36.671,0,0,0,8.357-10.918,40.1,40.1,0,0,0,2.292-5.347c.133-.316.226-.629.629-.629A11.823,11.823,0,0,1-2014.312,1862.236Zm-9.661,37.115c-.18.27-.359.632-.765.632s-.539-.5-.762-1.394a27.356,27.356,0,0,1-.9-3.552c0-.585.405-.585,1.8-.629,1.3-.047,2.6-.133,3.908-.27a1.61,1.61,0,0,0,1.619-1.124,171.634,171.634,0,0,0,6.515-17.072c.133-.4.269-.99.762-.99a23.673,23.673,0,0,1,2.92,1.124c.5.223,1.842.629,1.842,1.258,0,.315-.359.405-.629.495-.359.09-.583.177-.719.495-1.8,4.807-3.774,9.525-5.8,14.2a1.392,1.392,0,0,0-.09.406.631.631,0,0,0,.765.629c3.907-.313,7.816-.675,11.68-1.167.359-.044.675-.223.675-.629a.926.926,0,0,0-.18-.493c-.944-1.483-1.979-2.876-3.01-4.27a2.3,2.3,0,0,1-.495-.988c0-.9,2.2-2.248,3.146-2.248a1.335,1.335,0,0,1,.988.629c1.484,1.843,3.146,4.267,4.45,6.292.629.988,4.044,6.425,4.044,7.234s-2.248,2.156-3.326,2.156c-.631,0-.855-.449-1.619-1.889-.179-.313-.4-.716-.628-1.165a1.432,1.432,0,0,0-1.347-.854h-.406c-7.909,1.078-15.861,1.932-23.813,2.7C-2023.7,1898.9-2023.75,1899.038-2023.973,1899.351Zm17.567-33.518c-.988,0-1.886.09-2.74.09-1.124,0-1.032-.585-1.032-2.294,0-1.57-.046-2.2,1.032-2.2.808,0,1.706.089,2.74.089h1.753c.718,0,1.483-.046,2.2-.046,1.889,0,2.022,1.17,2.607,3.056,1.886,5.931,5.3,10.333,9.975,14.335.316.266.944.718.944,1.167,0,.852-1.709,2.471-3.01,2.471-.944,0-2.517-1.619-3.146-2.245a32.784,32.784,0,0,1-8.178-12.941c-.4-1.3-.765-1.483-1.842-1.483Z" transform="translate(2144.703 -1859.901)" fill="#fffcf3"/>
                <path id="パス_3331" data-name="パス 3331" d="M-2002.753,1892.346c0,2.2.09,4.4.09,6.608,0,1.437-.449,1.483-2.338,1.483-1.84,0-2.335-.046-2.335-1.437,0-2.251.137-4.45.137-6.654v-24.4c0-1.39-.09-2.784-.09-4.177,0-1.8.672-2.292,2.381-2.292,1.167,0,2.289.046,3.415.046h4.985c1.124,0,2.2-.046,3.326-.046,1.753,0,2.471.449,2.471,2.248,0,1.347-.09,2.694-.09,4.044v1.842c0,1.257.09,2.517.09,3.772,0,1.706-.718,2.248-2.382,2.248-1.124,0-2.291-.092-3.415-.092h-4.985c-.9,0-1.26.362-1.26,1.26Zm7.5-26.461a.781.781,0,0,0-.854-.858h-5.794a.782.782,0,0,0-.854.858v.313a.827.827,0,0,0,.854.852h5.794a.824.824,0,0,0,.854-.852Zm-7.5,5.211a1.013,1.013,0,0,0,1.078,1.075h5.347a1.037,1.037,0,0,0,1.078-1.075V1871a1.038,1.038,0,0,0-1.078-1.078h-5.347a1.014,1.014,0,0,0-1.078,1.078Zm20.31,20.757c0,1.842.09,3.639.09,5.481,0,1.257-.5,1.3-2.2,1.3-1.842,0-2.248-.09-2.248-1.393,0-1.8.136-3.592.136-5.391V1890.6c0-.9-.406-1.258-1.26-1.258h-1.617a1.264,1.264,0,0,0-1.483,1.121,13.33,13.33,0,0,1-4.942,7.324c-.449.359-1.168,1.034-1.752,1.034-.942,0-2.83-1.932-2.83-2.694,0-.452.628-.764.988-.988a9.973,9.973,0,0,0,4.09-4.632,1.306,1.306,0,0,0,.09-.4c0-.538-.406-.718-.9-.762-1.08,0-2.158.087-3.236.087-1.034,0-.988-.672-.988-1.886,0-1.35,0-1.842,1.031-1.842.988,0,2.428.089,3.505.043.854,0,1.167-.4,1.167-1.211v-1.437c0-.811-.313-1.214-1.167-1.214-.675,0-1.347.043-2.022.043-1.078,0-1.034-.628-1.034-1.842s-.044-1.84,1.034-1.84c1.3,0,2.607.09,3.864.09h10.739c1.3,0,2.6-.09,3.908-.09,1.078,0,.991.673.991,1.84,0,1.214.087,1.842-.991,1.842-.583,0-1.168-.043-1.753-.043-.852,0-1.211.36-1.211,1.214v1.437c0,.808.269,1.211,1.124,1.211.9.046,2.468-.043,3.233-.043,1.034,0,1.034.492,1.034,1.842s0,1.886-1.034,1.886c-.449,0-2.7-.087-3.233-.087-.854.087-1.124.4-1.124,1.258Zm-5.484-6.113a1.218,1.218,0,0,0,1.26-1.211v-1.437c-.09-.765-.5-1.26-1.26-1.26h-1.391a1.257,1.257,0,0,0-1.26,1.26v1.437c.09.762.449,1.211,1.26,1.211Zm6.964-10.2c-1.121,0-2.245.092-3.37.092-1.706,0-2.424-.495-2.424-2.248,0-1.255.09-2.515.09-3.772v-1.842c0-1.35-.09-2.7-.09-4.044,0-1.753.718-2.248,2.381-2.248,1.167,0,2.291.046,3.413.046h4.988c1.124,0,2.2-.046,3.326-.046,1.706,0,2.471.449,2.471,2.248,0,1.391-.089,2.83-.089,4.22v23.5c0,1.214.089,2.471.089,3.688,0,1.57-.315,3.323-1.752,4.221a10.139,10.139,0,0,1-4.809.991c-1.57,0-2.561-.046-2.561-3.461,0-.629.136-1.124.9-1.124h.585c.406.047.988.136,1.393.136,1.886,0,1.707-1.124,1.707-2.517V1876.8c0-.9-.36-1.26-1.258-1.26Zm6.246-9.656a.781.781,0,0,0-.852-.858h-5.8a.783.783,0,0,0-.854.858v.313a.827.827,0,0,0,.854.852h5.8a.824.824,0,0,0,.852-.852Zm-7.5,5.211a1.014,1.014,0,0,0,1.08,1.075h5.345a1.037,1.037,0,0,0,1.078-1.075V1871a1.038,1.038,0,0,0-1.078-1.078h-5.345a1.015,1.015,0,0,0-1.08,1.078Z" transform="translate(2182.005 -1859.816)" fill="#fffcf3"/>
                <path id="パス_3332" data-name="パス 3332" d="M-1976.938,1891.5a3.276,3.276,0,0,1-3.415,3.415,2.867,2.867,0,0,1-3.053-2.92,3.3,3.3,0,0,1,3.369-3.549A3.013,3.013,0,0,1-1976.938,1891.5Zm-3.951-6.422c-1.127,0-1.35-.226-1.4-1.347l-.313-11.1c-.089-2.966-.315-7.954-.315-8.852,0-.765.27-.945,1.26-.945h2.92c.988,0,1.257.18,1.257.945,0,.9-.226,5.886-.313,9.165l-.27,10.785c-.046,1.121-.272,1.347-1.393,1.347Z" transform="translate(2223.199 -1857.485)" fill="#fffcf3"/>
              </g>
              <path id="パス_3572" data-name="パス 3572" d="M-5472.471,6239.381a8.029,8.029,0,0,1,1.384.127,4.661,4.661,0,0,1,1.149.327v3.125a6.53,6.53,0,0,0-1.736-.219,2.72,2.72,0,0,0-2.069.72,3.417,3.417,0,0,0-.68,2.389v1.048h2.5v2.906h-2.5v11.681h-3.841V6249.8h-2.079V6246.9h2.079V6245.8a6.673,6.673,0,0,1,1.583-4.687A5.433,5.433,0,0,1-5472.471,6239.381Z" transform="translate(6037.921 -1904.791)" fill="#fffcf3"/>
            </g>
          </g>
        </g>
      </g>
    </g>
  </g>
</svg>
