<svg xmlns="http://www.w3.org/2000/svg" width="371.692" height="18.83" viewBox="0 0 371.692 18.83">
  <g id="グループ_2326" data-name="グループ 2326" transform="translate(-385.433 -1120.656)">
    <path id="パス_1614" data-name="パス 1614" d="M403.042,1137.872a13.211,13.211,0,0,1-2.329.952,14.776,14.776,0,0,1-2.4.509,20.4,20.4,0,0,1-2.51.153,13.042,13.042,0,0,1-4.294-.662,9.288,9.288,0,0,1-3.292-1.953,8.243,8.243,0,0,1-2.093-3.016,10.1,10.1,0,0,1-.693-3.79,9.793,9.793,0,0,1,.821-4.146,8.023,8.023,0,0,1,2.293-2.96,9.933,9.933,0,0,1,3.361-1.739,13.9,13.9,0,0,1,3.976-.562,21.7,21.7,0,0,1,7.076,1.388v4.87a19.894,19.894,0,0,0-2.691-1.408,8.027,8.027,0,0,0-3.128-.562,7.108,7.108,0,0,0-2.991.635,5.544,5.544,0,0,0-2.237,1.812,4.819,4.819,0,0,0-.1,5.3,5.188,5.188,0,0,0,2.056,1.842,6.366,6.366,0,0,0,2.969.682,9.646,9.646,0,0,0,2.527-.323,11.834,11.834,0,0,0,2.006-.724,17.828,17.828,0,0,0,1.672-.938Z" transform="translate(0)" fill="#2a8648"/>
    <path id="パス_1615" data-name="パス 1615" d="M417.225,1130.064a9.633,9.633,0,0,1-1.185,4.722,8.535,8.535,0,0,1-3.526,3.428,11.792,11.792,0,0,1-5.7,1.272,11.577,11.577,0,0,1-5.755-1.325,8.589,8.589,0,0,1-3.5-3.481,9.939,9.939,0,0,1-.008-9.241,8.518,8.518,0,0,1,3.5-3.464,11.662,11.662,0,0,1,5.763-1.319,12.707,12.707,0,0,1,4.53.757,9.108,9.108,0,0,1,3.275,2.043,8.573,8.573,0,0,1,1.945,3A9.964,9.964,0,0,1,417.225,1130.064Zm-5.638,0a5.59,5.59,0,0,0-.3-1.886,4.017,4.017,0,0,0-.921-1.48,4.281,4.281,0,0,0-1.5-.977,5.561,5.561,0,0,0-2.051-.35,4.707,4.707,0,1,0,0,9.4,5.236,5.236,0,0,0,2.593-.6,4,4,0,0,0,1.625-1.67A5.163,5.163,0,0,0,411.588,1130.064Z" transform="translate(19.575)" fill="#2a8648"/>
    <path id="パス_1616" data-name="パス 1616" d="M429.486,1139.085h-5.532v-10.624l-4.987,6.15h-.437l-5-6.15v10.624h-5.373v-18.338h5.014l5.638,6.882,5.663-6.882h5.014Z" transform="translate(40.509 0.162)" fill="#2a8648"/>
    <path id="パス_1617" data-name="パス 1617" d="M426.747,1139.085h-5.529v-18.338h5.529Z" transform="translate(63.792 0.162)" fill="#2a8648"/>
    <path id="パス_1618" data-name="パス 1618" d="M448.506,1139.085H443.58l-9.508-10.215v10.215h-5.479v-18.338H433.5l9.489,10.16v-10.16h5.518Z" transform="translate(76.939 0.162)" fill="#2a8648"/>
    <path id="パス_1619" data-name="パス 1619" d="M459.224,1137.95c-.4.151-.74.273-1.018.37s-.556.184-.815.267-.637.178-1.133.3a24.782,24.782,0,0,1-2.507.443,22.064,22.064,0,0,1-2.638.153,12.93,12.93,0,0,1-5.162-1.019,8.478,8.478,0,0,1-3.79-3.164,9.318,9.318,0,0,1-1.422-5.268,11.061,11.061,0,0,1,.735-3.948,6.9,6.9,0,0,1,2.243-3.1,10.323,10.323,0,0,1,2.521-1.475,10.78,10.78,0,0,1,2.493-.679,18.945,18.945,0,0,1,2.685-.175,18.2,18.2,0,0,1,4,.365q1.578.363,3.453.96v4.339a15.375,15.375,0,0,0-2.632-1.216,10.556,10.556,0,0,0-3.464-.49,7.1,7.1,0,0,0-3.832.907,5.014,5.014,0,0,0-2,2.165,5.91,5.91,0,0,0-.562,2.432,5.227,5.227,0,0,0,.646,2.563,4.763,4.763,0,0,0,1.959,1.875,6.556,6.556,0,0,0,3.164.707,10.016,10.016,0,0,0,2.248-.276v-2.157h-2.488v-3.692h7.318Z" transform="translate(98.591)" fill="#2a8648"/>
    <path id="パス_1620" data-name="パス 1620" d="M472.184,1133.915a5.048,5.048,0,0,1-.882,2.974,5.549,5.549,0,0,1-2.452,1.928,9.177,9.177,0,0,1-3.612.668c-.381,0-.846-.025-1.4-.075a15.339,15.339,0,0,1-2.2-.4,17.016,17.016,0,0,1-2.852-.979v-4.5a19.947,19.947,0,0,0,2.733,1.428,7.252,7.252,0,0,0,2.877.57,2.513,2.513,0,0,0,1.831-.47,1.364,1.364,0,0,0,.42-.879,1.5,1.5,0,0,0-.715-1.252,10.216,10.216,0,0,0-2.079-1.052,16.163,16.163,0,0,1-2.646-1.383,6.17,6.17,0,0,1-1.856-1.87,4.82,4.82,0,0,1-.723-2.66,4.867,4.867,0,0,1,2.95-4.591,8.442,8.442,0,0,1,3.654-.715,12.613,12.613,0,0,1,2.836.3,12.053,12.053,0,0,1,2.151.668,8.535,8.535,0,0,1,1.166.582v4.3a15.023,15.023,0,0,0-2.51-1.442,7,7,0,0,0-2.955-.634,2.3,2.3,0,0,0-1.494.4,1.231,1.231,0,0,0-.465.979,1.2,1.2,0,0,0,.465.941,7.99,7.99,0,0,0,1.653.963,33.66,33.66,0,0,1,3.386,1.789,6.658,6.658,0,0,1,1.992,1.831A4.448,4.448,0,0,1,472.184,1133.915Z" transform="translate(130.493)" fill="#2a8648"/>
    <path id="パス_1621" data-name="パス 1621" d="M488.636,1130.064a9.634,9.634,0,0,1-1.185,4.722,8.535,8.535,0,0,1-3.526,3.428,11.793,11.793,0,0,1-5.7,1.272,11.6,11.6,0,0,1-5.757-1.325,8.623,8.623,0,0,1-3.5-3.481,9.927,9.927,0,0,1-.006-9.241,8.518,8.518,0,0,1,3.5-3.464,11.661,11.661,0,0,1,5.763-1.319,12.706,12.706,0,0,1,4.53.757,9.083,9.083,0,0,1,3.275,2.043,8.614,8.614,0,0,1,1.945,3A9.9,9.9,0,0,1,488.636,1130.064Zm-5.638,0a5.659,5.659,0,0,0-.3-1.886,4.055,4.055,0,0,0-.921-1.48,4.279,4.279,0,0,0-1.5-.977,5.561,5.561,0,0,0-2.051-.35,4.707,4.707,0,1,0,0,9.4,5.217,5.217,0,0,0,2.591-.6,4,4,0,0,0,1.628-1.67A5.164,5.164,0,0,0,483,1130.064Z" transform="translate(146.871)" fill="#2a8648"/>
    <path id="パス_1622" data-name="パス 1622" d="M500.371,1130.064a9.661,9.661,0,0,1-1.183,4.722,8.551,8.551,0,0,1-3.526,3.428,11.792,11.792,0,0,1-5.7,1.272,11.588,11.588,0,0,1-5.757-1.325,8.6,8.6,0,0,1-3.5-3.481,9.938,9.938,0,0,1-.008-9.241,8.517,8.517,0,0,1,3.5-3.464,11.654,11.654,0,0,1,5.763-1.319,12.706,12.706,0,0,1,4.53.757,9.109,9.109,0,0,1,3.275,2.043,8.616,8.616,0,0,1,1.945,3A9.962,9.962,0,0,1,500.371,1130.064Zm-5.635,0a5.522,5.522,0,0,0-.306-1.886,3.976,3.976,0,0,0-.918-1.48,4.268,4.268,0,0,0-1.5-.977,5.545,5.545,0,0,0-2.048-.35,4.707,4.707,0,1,0,0,9.4,5.218,5.218,0,0,0,2.591-.6,3.986,3.986,0,0,0,1.628-1.67A5.2,5.2,0,0,0,494.736,1130.064Z" transform="translate(167.799)" fill="#2a8648"/>
    <path id="パス_1623" data-name="パス 1623" d="M511.641,1139.085h-4.923L497.2,1128.87v10.215h-5.476v-18.338h4.909l9.486,10.16v-10.16h5.518Z" transform="translate(189.487 0.162)" fill="#2a8648"/>
    <path id="パス_1624" data-name="パス 1624" d="M509.36,1128.222a2.76,2.76,0,0,1-.815,2.017,2.7,2.7,0,0,1-2,.829,2.787,2.787,0,0,1-2.023-.835,2.815,2.815,0,0,1,0-4.029,2.843,2.843,0,0,1,3.431-.443,2.72,2.72,0,0,1,1.038,1.032A2.816,2.816,0,0,1,509.36,1128.222Z" transform="translate(210.775 8.418)" fill="#2a8648"/>
    <path id="パス_1625" data-name="パス 1625" d="M516.007,1128.222a2.749,2.749,0,0,1-.815,2.017,2.693,2.693,0,0,1-2,.829,2.789,2.789,0,0,1-2.026-.835,2.815,2.815,0,0,1,0-4.029,2.843,2.843,0,0,1,3.431-.443,2.71,2.71,0,0,1,1.041,1.032A2.847,2.847,0,0,1,516.007,1128.222Z" transform="translate(222.622 8.418)" fill="#2a8648"/>
    <path id="パス_1626" data-name="パス 1626" d="M522.654,1128.222a2.761,2.761,0,0,1-.815,2.017,2.7,2.7,0,0,1-2,.829,2.787,2.787,0,0,1-2.023-.835,2.815,2.815,0,0,1,0-4.029,2.843,2.843,0,0,1,3.431-.443,2.72,2.72,0,0,1,1.038,1.032A2.818,2.818,0,0,1,522.654,1128.222Z" transform="translate(234.472 8.418)" fill="#2a8648"/>
  </g>
</svg>
