<svg xmlns="http://www.w3.org/2000/svg" width="442.032" height="198.549" viewBox="0 0 442.032 198.549">
  <g id="グループ_2319" data-name="グループ 2319" transform="translate(3074.299 -2680.458)">
    <g id="グループ_2309" data-name="グループ 2309" transform="translate(-572 -51)">
      <g id="コンポーネント_10_3" data-name="コンポーネント 10 – 3" transform="translate(-2502.299 2731.458)">
        <g id="グループ_2299" data-name="グループ 2299" transform="translate(-421.701 -1937.458)">
          <g id="グループ_1685" data-name="グループ 1685" transform="translate(-5460.418 -1321.518)">
            <g id="グループ_1680" data-name="グループ 1680">
              <path id="パス_1656" data-name="パス 1656" d="M5897.268,3281.285c0,.257-.205.4-.633.6a12.534,12.534,0,0,1-4.816.912c-5.91,0-9.7-3.939-9.7-9.78,0-5.962,3.625-10.755,10.754-10.755a11.182,11.182,0,0,1,4.1.713c.433.171.633.314.633.564a1.732,1.732,0,0,1-.148.547l-.627,1.71c-.165.428-.251.6-.485.6a1.464,1.464,0,0,1-.57-.17,7.646,7.646,0,0,0-3.049-.656c-4.736,0-7.164,3.339-7.164,7.358s2.542,6.759,6.623,6.759a7.379,7.379,0,0,0,3.306-.712,1.321,1.321,0,0,1,.57-.2c.228,0,.342.176.519.6l.541,1.367A1.817,1.817,0,0,1,5897.268,3281.285Z" fill="#2a8648"/>
              <path id="パス_1657" data-name="パス 1657" d="M5924.562,3276.972c0,3.676-2.764,5.847-7.158,5.847a12.844,12.844,0,0,1-5.99-1.482c-.37-.2-.541-.37-.541-.626a1.483,1.483,0,0,1,.171-.57l.712-1.482c.171-.377.285-.576.484-.576a1.147,1.147,0,0,1,.542.285,8.951,8.951,0,0,0,4.879,1.488c2.137,0,3.534-1,3.534-2.593,0-1.658-1.824-2.548-4.189-3.517-2.764-1.14-5.7-2.536-5.7-5.956,0-3.545,2.821-5.563,7.158-5.563a12.459,12.459,0,0,1,4.907,1.055c.4.2.6.342.6.6a1.7,1.7,0,0,1-.142.541l-.655,1.688c-.171.393-.285.593-.456.593a1.163,1.163,0,0,1-.57-.257,8.317,8.317,0,0,0-4.052-1.111c-2.28,0-3.391,1-3.391,2.342,0,1.482,1.482,2.223,3.847,3.22C5921.541,3272.155,5924.562,3273.551,5924.562,3276.972Z" fill="#2a8648"/>
              <path id="パス_1658" data-name="パス 1658" d="M5948.772,3268.507a.735.735,0,0,0-.513-.228,1,1,0,0,0-.57.228.823.823,0,0,1-.57.308,2.731,2.731,0,0,1-1.687-1.682c0-.279.314-.536.547-.741a20.006,20.006,0,0,0,5.107-7.016c.051-.2.108-.4.365-.4.171,0,1.425.342,1.715.428.969.228,1.453.319,1.453.655,0,.2-.285.319-.456.348-.143.029-.428.052-.428.257,0,.136.2.2.314.227h1.2c.684,0,1.368-.028,2.052-.028h.257c.228,0,.456-.063.456-.347v-.137a1.967,1.967,0,0,1-.051-.376c0-.684,1.909-.826,1.938-.826.427,0,.513.343.627.684a20.9,20.9,0,0,0,3.22,6.1.559.559,0,0,0,.49.285c.313,0,.541-.342.712-.571a17.653,17.653,0,0,0,2.08-2.827c0-.227-.37-.194-.655-.194h-1.541c-.633,0-1.345.057-1.881.057-.661,0-.661-.256-.661-1.168,0-.975.029-1.168.661-1.168.456,0,1.054.057,2,.057h1.6c.655,0,1.311-.029,2-.029a2,2,0,0,1,1.972,1.6c0,1.282-3.14,4.85-4.052,5.96a.771.771,0,0,0-.228.514.631.631,0,0,0,.285.536,29.7,29.7,0,0,0,3.967,3.14c.336.228.712.427.712.741,0,.547-1.06,2.029-1.6,2.029a2.445,2.445,0,0,1-.918-.484.37.37,0,0,0-.228-.086c-.256,0-.313.2-.342.393,0,1.089.029,1.43-.627,1.43-1,0-2-.062-2.992-.062h-3.767c-.542,0-.8.239-.8.8v2.656c0,.57.057,1.14.057,1.71,0,2.137-.114,3.391-4.622,3.391h-.342c-.4,0-.855-.022-1.026-.308a4.451,4.451,0,0,1-.456-1.943c0-.57.2-.684.542-.684.427,0,.855.056,1.282.056,1.567,0,1.539-.284,1.539-1.766v-3.112c0-.564-.228-.8-.8-.8h-3.647c-1,0-2,.062-3,.062-.712,0-.6-.4-.627-1.23-.029-.228-.114-.423-.371-.423a.4.4,0,0,0-.256.086,2.617,2.617,0,0,1-1.146.542c-.764,0-1.738-1.4-1.738-1.773,0-.421.912-.878,1.254-1.076,1.089-.662,1.972-1.26,2.969-2a.725.725,0,0,0,.314-.541.807.807,0,0,0-.228-.491Zm5.79,10.384h-.114c-.313,0-.427.136-.627.364-.8.889-4.594,4.736-5.619,4.736a3.2,3.2,0,0,1-1.909-1.681c0-.286.228-.428.422-.542a22.41,22.41,0,0,0,5.164-4.593c.12-.143.262-.343.49-.343a5.522,5.522,0,0,1,1.453.827,6.1,6.1,0,0,0,.6.371c.143.113.542.37.542.57,0,.089-.088.289-.4.289Zm-1.881-11.667a.512.512,0,0,0-.171-.4c-.4-.376-.832-.747-1.26-1.117a.746.746,0,0,0-.484-.2.688.688,0,0,0-.542.284c-.085.091-.171.2-.256.285a.7.7,0,0,0-.114.342.66.66,0,0,0,.171.377l1.34,1.248a.481.481,0,0,0,.342.177.549.549,0,0,0,.37-.177c.177-.171.314-.336.456-.479a.6.6,0,0,0,.148-.339Zm14.374,6.1a.31.31,0,0,0-.142-.228,36.057,36.057,0,0,1-3.226-2.992.246.246,0,0,0-.2-.085.231.231,0,0,0-.229.234v.022c-.029.656.057,1.06-.6,1.06-.8,0-1.6-.062-2.422-.062h-3.368c-.826,0-1.624.062-2.451.062-.541,0-.57-.29-.57-.746-.028-.143-.086-.228-.228-.228-.057,0-.114.057-.171.086a38.325,38.325,0,0,1-3.112,2.678.3.3,0,0,0-.143.228c0,.12.086.228.285.262.655,0,1.316.028,1.972.028h12.037c.769,0,1.51,0,2.251-.063a.284.284,0,0,0,.315-.247v-.01Zm-13.4-8.3a.622.622,0,0,0,.456.2.562.562,0,0,0,.484-.279,6.8,6.8,0,0,0,.912-1.635c0-.194-.285-.229-.712-.229h-2a.848.848,0,0,0-.627.2.307.307,0,0,0-.023.143.5.5,0,0,0,.228.427c.417.371.85.77,1.277,1.168Zm8.44,3.335a.507.507,0,0,0-.085-.286,21.9,21.9,0,0,1-2.764-4.559c-.085-.114-.171-.2-.291-.2a.373.373,0,0,0-.308.2,24.484,24.484,0,0,1-3,4.621.361.361,0,0,0-.114.257.338.338,0,0,0,.332.343h4.369c.484,0,.969,0,1.453-.029.2,0,.4-.084.4-.346Zm6.239,15.83c-.285,0-.57-.37-.741-.569a30.849,30.849,0,0,0-4.993-4.5c-.171-.12-.456-.319-.456-.575,0-.457,1.225-1.51,1.681-1.51.8,0,6.3,4.85,6.3,5.562C5970.134,3283.052,5968.822,3284.189,5968.334,3284.189Z" fill="#2a8648"/>
              <path id="パス_1659" data-name="パス 1659" d="M6006.152,3265.168a9.626,9.626,0,0,1,2.878,7.016,10.25,10.25,0,0,1-5.557,9.216,11.123,11.123,0,0,1-3.112,1.139c-.741,0-1.909-1.766-1.909-2.393,0-.285.428-.342.712-.4,3.733-.884,6.674-3.334,6.674-7.415a6.909,6.909,0,0,0-4.565-6.815,5.29,5.29,0,0,0-1.083-.257c-.655,0-.655.633-.684,1.117-.314,4.16-1.311,9.239-4.052,12.522a5.108,5.108,0,0,1-3.762,2.193,4.588,4.588,0,0,1-3.881-2.712,8.941,8.941,0,0,1-.883-4.046,11.753,11.753,0,0,1,11.519-11.984c.106,0,.212,0,.318,0A10.152,10.152,0,0,1,6006.152,3265.168Zm-11.1.826a8.837,8.837,0,0,0-5.135,8.219c0,1.054.37,3.7,1.83,3.7,1.425,0,3.021-3.249,3.818-6.161a28.577,28.577,0,0,0,.912-5.563c0-.285-.142-.513-.456-.513a3.363,3.363,0,0,0-.966.318Z" fill="#2a8648"/>
              <path id="パス_1660" data-name="パス 1660" d="M6027.1,3282.48c-.257.029-.279.114-.393.343-.091.177-.171.342-.37.342-.257,0-.342-.314-.547-1a16.207,16.207,0,0,1-.456-1.773c0-.279.257-.307.855-.307a11.009,11.009,0,0,0,1.345-.086c.541-.063.741-.32.741-.855v-6.617c-.057-.575-.228-.741-.8-.8-.633.029-1.254.063-1.886.063-.6,0-.6-.319-.6-1.116,0-.884.028-1.14.6-1.14,1.117,0,2.228.057,3.34.057H6046.3c1.083,0,2.194-.057,3.311-.057.6,0,.6.285.6,1.112,0,.8,0,1.145-.576,1.145-1.111,0-2.223-.063-3.334-.063H6038c-.541,0-.8.228-.8.8v7.586c0,1.2.085,2.422.085,3.619,0,.889-.285.918-1.4.918-1.026,0-1.4-.029-1.4-.861,0-.564.029-1.141.057-1.71-.028-.37-.2-.627-.6-.627a1.4,1.4,0,0,0-.142.029C6031.588,3281.854,6029.36,3282.192,6027.1,3282.48Zm17.918-16.487c0,.513.029.969.029,1.453,0,.946-.769,1.06-1.545,1.06-.8,0-1.624-.028-2.451-.028h-6.9c-.8,0-1.6.028-2.4.028-.769,0-1.6-.086-1.6-1.06,0-.421.057-.878.057-1.453v-3.534c0-.547-.057-1-.057-1.459,0-.912.77-1.048,1.545-1.048.8,0,1.624.051,2.451.051h6.9c.8,0,1.6-.051,2.422-.051.741,0,1.573.079,1.573,1.048,0,.484-.029.969-.029,1.459Zm-14.237,6.588a.561.561,0,0,0,.547.541h2.707a.561.561,0,0,0,.541-.541v-.308a.526.526,0,0,0-.5-.548h-2.745a.526.526,0,0,0-.547.506.3.3,0,0,0,0,.042Zm0,2.969a.636.636,0,0,0,.614.657.558.558,0,0,0,.07,0h2.428a.636.636,0,0,0,.682-.586.561.561,0,0,0,0-.07v-.086a.658.658,0,0,0-.631-.684h-2.481a.657.657,0,0,0-.684.631.484.484,0,0,0,0,.053Zm.684,2.394c-.484,0-.684.2-.684.689v.394c0,.376.143.6.547.6a22.7,22.7,0,0,0,2.736-.319c.37-.057.484-.223.513-.593-.029-.541-.256-.775-.8-.775Zm10.954-15.371a.508.508,0,0,0-.472-.542.411.411,0,0,0-.069,0h-8.526a.5.5,0,0,0-.547.542v.171a.516.516,0,0,0,.488.542.477.477,0,0,0,.059,0h8.526a.527.527,0,0,0,.541-.513v-.2Zm-9.067,2.479a.5.5,0,0,0-.547.542v.29a.5.5,0,0,0,.46.537.47.47,0,0,0,.087,0h8.526a.506.506,0,0,0,.541-.469c0-.022,0-.045,0-.067v-.29a.524.524,0,0,0-.506-.542h-8.561Zm10.407,16.886a.969.969,0,0,0-.564.229c-.69.6-3.226,2.485-4.024,2.485-.661,0-1.425-1.232-1.425-1.773,0-.427.6-.655.94-.826a13.776,13.776,0,0,0,2.736-1.71.683.683,0,0,0,.314-.542.906.906,0,0,0-.2-.518,14.186,14.186,0,0,1-1.881-3.249c-.171-.427-.37-.684-.883-.684h-.262c-.564,0-.536-.37-.536-1.088,0-.884,0-1.106.6-1.106,1,0,2.023.057,3.049.057h3.2c.6,0,1.2-.057,1.8-.057a1.389,1.389,0,0,1,1.311.593,1.811,1.811,0,0,1,.541,1.089c0,.855-1.909,3.733-2.508,4.508a.793.793,0,0,0-.171.456.617.617,0,0,0,.313.542,14.953,14.953,0,0,0,3.534,1.8c.257.086.513.171.513.456,0,.57-.969,1.972-1.567,1.972-.8,0-3.534-1.8-4.217-2.371a.951.951,0,0,0-.613-.262Zm-.08-4.109a.566.566,0,0,0,.456-.285,7.266,7.266,0,0,0,1.054-1.886c0-.337-.314-.365-.912-.365h-1.539c-.262,0-.519.109-.519.428a.859.859,0,0,0,.086.256,16.968,16.968,0,0,0,.912,1.567.587.587,0,0,0,.462.286Z" fill="#2a8648"/>
              <path id="パス_1661" data-name="パス 1661" d="M6071.426,3271.7c0,.257-.256.376-.427.485-.319.2-.348.833-.348,1.715v6.3c0,1.2.063,2.37.063,3.567,0,.8-.313.94-1.487.94-1.2,0-1.482-.2-1.482-.991,0-1.175.057-2.343.057-3.516v-5.643c0-.2-.086-.4-.313-.4a.448.448,0,0,0-.257.109c-.342.319-1.168,1.174-1.6,1.174-.547,0-1.573-1.225-1.573-1.766,0-.405.456-.684.747-.912a28.683,28.683,0,0,0,6.389-7.42c.142-.228.228-.393.484-.393a12.46,12.46,0,0,1,2.337.991c.2.086.484.228.484.484,0,.229-.256.286-.427.314a.843.843,0,0,0-.741.49,43.323,43.323,0,0,1-2.77,3.654.21.21,0,0,0-.051.165.245.245,0,0,0,.228.257C6071,3271.334,6071.426,3271.363,6071.426,3271.7Zm-.342-12.179c.4.228,1,.541,1.425.741.2.086.485.228.485.512,0,.172-.2.257-.371.257-.456.029-.484.029-.769.427a24.43,24.43,0,0,1-5.164,5.369,1.821,1.821,0,0,1-.8.4,2.648,2.648,0,0,1-1.716-1.6c0-.343.427-.628.655-.827a19.592,19.592,0,0,0,4.85-5.072c.2-.319.313-.519.576-.519a2.25,2.25,0,0,1,.829.313Zm13.975,8.959a.561.561,0,0,0-.086-.314,4.517,4.517,0,0,1-.684-1.23c0-.542,1.368-1.026,1.8-1.026.342,0,.513.205.713.462a26.537,26.537,0,0,1,1.715,2.821,19,19,0,0,1,1.225,2.507c0,.6-1.311,1.06-1.944,1.06-.456,0-.541-.205-.769-.712-.057-.12-.108-.257-.171-.4a.9.9,0,0,0-.883-.6h-.142c-1.482.142-2.593.257-4.081.371-.171,0-.4.029-.4.086,0,.028.029.028.057.056.143.057.37.143.37.343s-.256.256-.4.285c-.4.063-.456.091-.769.547a.389.389,0,0,0-.057.2c0,.261.2.318.4.341h1.938c.832,0,1.687-.023,2.542-.023a1.441,1.441,0,0,1,1.254.508,1.672,1.672,0,0,1,.6,1.032c0,1.111-2.08,3.619-2.907,4.422a.6.6,0,0,0-.2.427.487.487,0,0,0,.342.428,19.509,19.509,0,0,0,4.3,1.482c.69.143,1.2.228,1.2.656,0,.6-.8,2.428-1.681,2.428-1.4,0-5.05-1.829-6.3-2.6a1.3,1.3,0,0,0-.661-.2,1.449,1.449,0,0,0-.6.171,21.373,21.373,0,0,1-5.762,2.337,7.931,7.931,0,0,1-1.567.291c-.94,0-1.339-1.858-1.339-2.115,0-.57.484-.6,1.368-.769a18.381,18.381,0,0,0,4.85-1.573.531.531,0,0,0,.314-.456.691.691,0,0,0-.2-.427c-.456-.428-.912-.884-1.311-1.339a.931.931,0,0,0-.57-.285.784.784,0,0,0-.49.2c-.08.057-.194.171-.37.32-.627.541-1.71,1.481-2.109,1.481a2.32,2.32,0,0,1-1.51-1.573c0-.284.285-.484.484-.655a24.613,24.613,0,0,0,5.078-5.107.38.38,0,0,0,.086-.25c0-.257-.228-.319-.427-.348l-3.055.171c-.285.086-.285.148-.456.405-.085.107-.171.227-.314.227-.313,0-.427-.575-.627-1.344a8.56,8.56,0,0,1-.314-1.425c0-.314.2-.342.428-.342h1.054l2.935-.085a.973.973,0,0,0,.747-.343c.142-.176.285-.313.428-.484a.685.685,0,0,0,.2-.462.668.668,0,0,0-.313-.536c-1.288-.975-2.371-1.744-3.71-2.627-.228-.171-.4-.285-.4-.513,0-.456.741-1.852,1.311-1.852a2.1,2.1,0,0,1,.747.336.726.726,0,0,0,.484.177.7.7,0,0,0,.57-.37,24.755,24.755,0,0,0,1.767-3.312c.086-.2.142-.37.4-.37.114,0,2.65,1.083,2.65,1.482,0,.227-.228.256-.393.284a.684.684,0,0,0-.6.313c-.655,1.054-1.339,2.085-2.023,3.083a.676.676,0,0,0-.142.4.717.717,0,0,0,.285.513,5.041,5.041,0,0,1,.627.485.908.908,0,0,0,.484.17.79.79,0,0,0,.57-.307c.969-1.4,1.943-2.775,2.77-4.251.114-.205.194-.377.4-.377a9.981,9.981,0,0,1,1.539.741c.313.172,1.453.747,1.453,1,0,.285-.37.285-.57.285-.313,0-.427.2-.57.341-1.4,1.852-2.793,3.682-4.337,5.414a.424.424,0,0,0-.086.257c0,.2.171.262.342.29,1.031-.091,2.023-.142,3.026-.228.218-.03.446-.144.446-.4Zm-3.8,9.467a.906.906,0,0,0,.57-.285c.257-.257,1.573-1.567,1.573-1.853,0-.171-.262-.2-.684-.2h-3.311c-.2.029-.4.085-.4.341a.536.536,0,0,0,.114.257,21.2,21.2,0,0,0,1.567,1.516,1.052,1.052,0,0,0,.574.224Z" fill="#2a8648"/>
              <path id="パス_1662" data-name="パス 1662" d="M6112.2,3262.688c.228.085.57.193.57.484,0,.165-.114.2-.4.365-.484.256-.6.518-.884,1.23a22.652,22.652,0,0,0-1.6,8.1c0,.547.114,4,.769,4,.257,0,.655-.826.769-1.111.171-.37.342-.684.6-.684.285,0,1.026.593,1.026.912,0,.256-1.14,2.849-1.14,4.137,0,.279.086.94.114,1.2a2.516,2.516,0,0,1,.057.428c0,.712-1.624,1.4-2.223,1.4-.49,0-.832-.628-1.2-1.4a19.669,19.669,0,0,1-1.738-8.754,34.234,34.234,0,0,1,1.453-9.449,13.073,13.073,0,0,0,.376-1.426c.051-.25.114-.627.427-.627C6109.411,3261.485,6111.805,3262.517,6112.2,3262.688Zm3.539,13.632a4.884,4.884,0,0,0,4.331,1.994,23.143,23.143,0,0,0,6.275-.911,2.04,2.04,0,0,1,.6-.108c.456,0,.519.684.519,2.137,0,.336.028.855-.342,1.054-.8.428-5.62.855-6.759.855-4.622,0-6.537-2.4-6.537-2.85,0-.4,1-2.428,1.545-2.428.164,0,.278.144.369.258Zm1.026-12.464a18.347,18.347,0,0,0,3.738.427,18.675,18.675,0,0,0,4.332-.57,2.794,2.794,0,0,1,.513-.085c.4,0,.513.342.57.684a14.328,14.328,0,0,1,.114,1.545c0,.593,0,.821-.541.941a33.17,33.17,0,0,1-4.793.393c-.883,0-4.389-.165-4.987-.57-.313-.2-.291-.8-.291-1.111,0-1.368.148-1.8.6-1.8a3.35,3.35,0,0,1,.746.146Z" fill="#2a8648"/>
              <path id="パス_1663" data-name="パス 1663" d="M6151.415,3270.877c0,.336.143.621.513.621a3.278,3.278,0,0,0,.741-.2c.8-.286,2.08-.741,2.223-.741.484,0,.633.655.633,1.715,0,.564-.091.792-.576.991-.94.348-1.881.661-2.821.969a.9.9,0,0,0-.712,1v4.394c0,.627.057,1.248.057,1.881a2.965,2.965,0,0,1-.889,2.4,6.725,6.725,0,0,1-3.733.792c-.94,0-1.653.029-1.653-2.137,0-.456.086-.883.621-.883.376,0,.861.029,1.288.029,1.482,0,1.453-.342,1.453-2v-3.648c0-.313-.143-.6-.513-.6-.143,0-1.14.257-1.51.342-.969.228-1.026.228-1.225.627a.442.442,0,0,1-.37.284c-.342,0-.456-.342-.633-1.082a17.521,17.521,0,0,1-.456-1.858c0-.427.427-.427.889-.513,1.054-.171,2.08-.4,3.106-.655.57-.142.712-.365.712-.969v-3.995c0-.564-.228-.792-.8-.792h-.684c-.8,0-1.681.051-2.337.051-.69,0-.661-.336-.661-1.367,0-1.083-.029-1.425.661-1.425.57,0,1.482.085,2.337.085h.684c.57,0,.8-.256.8-.8v-1.616a10.693,10.693,0,0,0-.086-1.916c0-.084-.029-.2-.029-.284,0-.342.285-.371.542-.371.456,0,1.915.114,2.428.142.257.029.712.029.712.4,0,.227-.228.341-.4.455-.285.205-.314.661-.314,1.63v1.568c0,.541.228.8.8.8h.171c.883,0,1.767-.085,2.365-.085.684,0,.627.4.627,1.425,0,.968.057,1.367-.627,1.367s-1.539-.051-2.365-.051h-.171c-.57,0-.8.228-.8.792Zm10.15-6.253c0-.57-.228-.8-.769-.8h-1.4c-1.054,0-2.109.058-3.163.058-.861,0-.832-.4-.832-1.426,0-1.083-.029-1.458.832-1.458,1.054,0,2.109.057,3.163.057h5.962c1.026,0,2.08-.057,3.14-.057.878,0,.821.376.821,1.458,0,1.026.057,1.426-.821,1.426-1.06,0-2.115-.091-3.169-.058-.541,0-.8.228-.8.8v14.829c0,.484.029.94.029,1.425,0,3.14-1.567,3.824-5.676,3.824-.684,0-1.026-.051-1.2-.536a5.478,5.478,0,0,1-.279-1.63c0-.4.051-.911.57-.911a4.119,4.119,0,0,1,.627.057c.37.029.684.029,1.054.029,1.909,0,1.909-.428,1.909-2.166Z" fill="#2a8648"/>
              <path id="パス_1664" data-name="パス 1664" d="M6196.638,3261.6a.535.535,0,0,1-.251.428,1.786,1.786,0,0,0-.6,1.168c-.063.171-.091.336-.171.564a3.343,3.343,0,0,0-.177.718.44.44,0,0,0,.45.43l.034,0a30.368,30.368,0,0,0,5.506-1.255,2.358,2.358,0,0,1,.775-.2c.365,0,.427.4.541.792a9.267,9.267,0,0,1,.256,1.772c0,.456-.313.547-1.026.684-1.544.285-4.907.8-6.508.974-.941.114-.969.313-1.311,1.653-.085.392-.222.912-.393,1.545a1.413,1.413,0,0,0-.091.507c0,.17.091.256.291.256a.537.537,0,0,0,.308-.114,9.186,9.186,0,0,1,4.992-1.538,5.521,5.521,0,0,1,5.8,5.232,5.865,5.865,0,0,1-.006.668c0,3.59-2.451,5.79-5.762,6.673a26.131,26.131,0,0,1-5.961.8c-.941,0-1.083-.136-1.254-.741a8.728,8.728,0,0,1-.37-1.88.568.568,0,0,1,.534-.6.372.372,0,0,1,.066,0c.37,0,1.231.2,2.308.2,2.969,0,7.5-.86,7.5-4.621a2.774,2.774,0,0,0-2.577-2.958c-.081-.006-.163-.008-.244-.006a9.382,9.382,0,0,0-6.9,3.563c-.2.257-.456.627-.8.627-.661,0-2.285-.8-2.285-1.6a3.864,3.864,0,0,1,.4-1.253,29.085,29.085,0,0,0,1.567-4.736,3.146,3.146,0,0,0,.137-.712.407.407,0,0,0-.381-.43.368.368,0,0,0-.075,0c-.165,0-.422.029-.593.029-.655.028-2.884.279-3.454.279a.661.661,0,0,1-.735-.564,8.416,8.416,0,0,1-.319-1.886c0-.741.456-.712.6-.712.4,0,2.086.114,3.226.114,2.023,0,2.337-.08,2.593-.684a26.464,26.464,0,0,0,.6-3.625c.057-.4.029-1.026.484-1.026C6193.646,3260.146,6196.638,3260.973,6196.638,3261.6Z" fill="#2a8648"/>
              <path id="パス_1665" data-name="パス 1665" d="M6236.682,3267.054c0,.536.228.741.8.792h4.736c1.146,0,2.28-.079,3.425-.079.741,0,.713.37.713,1.475,0,1.2.029,1.546-.713,1.546-1.146,0-2.28-.058-3.425-.058h-4.736c-.57,0-.8.228-.8.8v8.3c0,.541.228.8.8.8h6.218c1.2,0,2.4-.085,3.6-.085.741,0,.741.336.741,1.453,0,1.253,0,1.567-.741,1.567-1.2,0-2.4-.086-3.6-.086h-16.228c-1.2,0-2.4.086-3.6.086-.741,0-.712-.4-.712-1.51,0-1.139,0-1.51.712-1.51,1.2,0,2.4.085,3.6.085h5.221c.564,0,.792-.257.792-.8v-17.77c0-.8-.051-1.624-.108-2.257,0-.08-.029-.2-.029-.285,0-.343.257-.4.541-.4.4,0,2.28.171,2.764.228.228.029.712.057.712.4,0,.206-.114.256-.342.432-.313.228-.342.821-.342,1.733Z" fill="#2a8648"/>
              <path id="パス_1666" data-name="パス 1666" d="M6269.7,3262.717c.427.108.975.256.975.57,0,.171-.148.228-.256.313a1.607,1.607,0,0,0-.912,1.026,22.524,22.524,0,0,0-1.544,8.013c0,.547.171,3.853.741,3.853.228,0,.655-1.254.769-1.6.228-.633.37-1,.655-1,.256,0,1.2.513,1.2.849,0,.376-1.089,3.112-1.089,4.993,0,.427.057.889.057,1.345,0,1.112-1.909,1.51-2.194,1.51-.427,0-.627-.256-.969-.883a18.537,18.537,0,0,1-2.029-9.011,33.986,33.986,0,0,1,1.425-9.364,5.068,5.068,0,0,0,.2-.793c.034-.257.12-.683.456-.683a19.347,19.347,0,0,1,2.143.712C6269.509,3262.626,6269.614,3262.688,6269.7,3262.717Zm10.521-1.2c.974.091,1.658.091,1.658.428,0,.29-.251.4-.251,1.288s.051,1.766.108,2.656c0,.194,0,1.02.684,1.02a19.13,19.13,0,0,0,2-.4,4.092,4.092,0,0,1,.542-.086c.655,0,.655,1.773.655,2.229,0,.769-.256.769-2.029.969-.656.085-1.624.085-1.624,1,0,.747.029,1.482.029,2.194a13.976,13.976,0,0,1-3.79,10.127c-.319.342-.883.974-1.368.974s-2.086-1.374-2.086-1.915c0-.256.2-.37.6-.712a10.412,10.412,0,0,0,3.283-4.907,15.352,15.352,0,0,0,.422-4.252v-.485c0-.712-.051-1.254-.712-1.254-.256,0-3.534.541-4.075.626-.313.029-.655.086-1,.086-.376,0-.8-.057-.8-1.966,0-1,.171-.969,1.088-1.031,1.453-.057,2.907-.228,4.36-.394.484-.062.861-.262.861-.8,0-.137-.029-.4-.029-.535a35.926,35.926,0,0,0-.661-4.259,1.86,1.86,0,0,1-.051-.364c0-.262.257-.37.484-.37.5-.006,1.245.1,1.7.13Zm5.22.689a7.954,7.954,0,0,1,.861,1.739c0,.456-1.225.969-1.573.969-.228,0-.336-.171-.536-.661a17.123,17.123,0,0,0-1.288-2.365.927.927,0,0,1-.165-.4c0-.365,1.254-.82,1.533-.82s.455.333,1.168,1.535Zm2.348-2.712a18.284,18.284,0,0,1,1.562,2.878c0,.484-1.305.969-1.562.969-.228,0-.291-.166-.4-.423-.371-.746-1-1.886-1.425-2.6a.878.878,0,0,1-.2-.393c0-.4,1.254-.832,1.573-.832.224,0,.3.2.452.4Z" fill="#2a8648"/>
              <path id="パス_1667" data-name="パス 1667" d="M6320.267,3263.885c0,.2-.314.365-.627.6a27.518,27.518,0,0,0-4.138,3.819.886.886,0,0,0-.285.484c0,.228.228.376.484.376a1.669,1.669,0,0,0,.371-.057,5.1,5.1,0,0,1,1.174-.114,8.383,8.383,0,0,1,3.511.855,5.9,5.9,0,0,1,3.391,5.534c0,5.043-4.48,7.672-9.068,7.672-2.371,0-5.734-.969-5.734-3.876a3.578,3.578,0,0,1,3.648-3.453,4.628,4.628,0,0,1,3.79,2.029,2.778,2.778,0,0,1,.513,1.824c.029.194.12.365.348.365a4.626,4.626,0,0,0,3.448-4.388c0-2.764-2.337-3.91-4.816-3.91a8.633,8.633,0,0,0-6.389,2.8c-1.117,1.082-2.143,2.251-3.169,3.419a.378.378,0,0,1-.313.2c-.6,0-2.052-1.6-2.052-2.052,0-.347.427-.656.684-.854a114.691,114.691,0,0,0,8.874-8.959c.222-.228.735-.741.735-1.026,0-.256-.251-.342-.479-.342a5.35,5.35,0,0,0-.69.12c-.684.165-4.708.991-5.164.991-.627,0-.712-2.143-.712-2.627,0-.65.029-.712.883-.712h.69a26.419,26.419,0,0,0,7.21-1.049,3.785,3.785,0,0,1,1.088-.319C6318.614,3261.229,6320.267,3263.4,6320.267,3263.885Zm-7.215,14.146a1.189,1.189,0,0,0-1.231,1.145c0,1.021,1.373,1.5,2.228,1.5.542,0,.775-.513.775-.969a1.746,1.746,0,0,0-1.772-1.681Z" fill="#2a8648"/>
              <path id="パス_1668" data-name="パス 1668" d="M5900.408,3334.853c-.513,1.344-.969,2.513-1.482,3.989-.256.689-.4.8-1.14.8h-.684c-.747,0-.883-.114-1.111-.833-.462-1.476-.861-2.644-1.317-4.018l-3.448-10.1c-.484-1.367-.94-2.679-1.6-4.445a1.442,1.442,0,0,1-.114-.484c0-.257.2-.314.661-.314h2.194c.741,0,.883.114,1.083.827.456,1.653.827,2.855,1.254,4.2l2.713,8.5c.085.256.171.371.285.371.086,0,.2-.114.285-.343l3.226-8.388c.536-1.426.992-2.656,1.567-4.36.256-.684.4-.8,1.14-.8h.456c.741,0,.883.114,1.111.827.57,1.675,1.054,2.935,1.567,4.332l3.14,8.36c.085.228.171.342.285.342.086,0,.2-.114.285-.371l2.77-8.468c.427-1.34.8-2.542,1.282-4.195.2-.713.342-.827,1.083-.827h2c.456,0,.656.057.656.314a1.216,1.216,0,0,1-.114.484c-.684,1.766-1.111,3.049-1.6,4.417l-3.482,10.156c-.456,1.344-.855,2.541-1.311,3.989-.228.719-.37.833-1.111.833h-.713c-.741,0-.883-.114-1.14-.8-.513-1.505-.975-2.7-1.453-3.989l-3.283-8.618c-.086-.228-.2-.365-.313-.365s-.2.114-.314.365Z" fill="#2a8648"/>
              <path id="パス_1669" data-name="パス 1669" d="M5939.619,3336.653c1.368,0,3.932-.091,4.132-.091.6,0,.712.171.712.826v1.488c0,.656-.108.826-.712.826-.2,0-2.764-.057-4.132-.057h-2.194c-1.345,0-3.6.057-3.8.057-.627,0-.8-.228-.8-.912.034-1.6.063-3.4.063-4.764v-8.96c0-1.4-.029-3.3-.063-4.764,0-.684.177-.912.8-.912.2,0,2.451.063,3.8.063h1.6c1.368,0,3.933-.063,4.132-.063.6,0,.712.177.712.832v1.539c0,.656-.114.827-.712.827-.2,0-2.764-.085-4.132-.085H5937c-.712,0-.855.148-.855.86v3.249c0,.712.142.855.855.855h1.431c1.339,0,3.933-.058,4.132-.058.6,0,.712.171.712.826v1.4c0,.656-.114.832-.712.832-.2,0-2.792-.057-4.132-.057H5937c-.712,0-.855.137-.855.849v4.536c0,.713.142.86.855.86Z" fill="#2a8648"/>
              <path id="パス_1670" data-name="パス 1670" d="M5964.063,3339.645c-1.34,0-3.6.057-3.79.057-.6,0-.8-.2-.8-.8,0-.2.057-3.282.057-4.878v-8.96c0-1.4-.057-4.28-.057-4.764,0-.684.171-.912.8-.912.308,0,2.451.063,3.79.063h2.2c4.1,0,6.531,1.077,6.531,4.565a4.9,4.9,0,0,1-1.858,4.3c-.228.172-.371.285-.371.37,0,.143.142.228.462.348a4.333,4.333,0,0,1,2.736,4.417c0,4.251-2.827,6.189-7.415,6.189Zm-1.311-12.806c0,.713.143.855.855.855h2.285c2.109,0,3.619-.8,3.619-3.083,0-1.881-1.539-2.366-3.277-2.366H5963.6c-.712,0-.855.143-.855.861Zm0,9.21c0,.712.143.861.855.861h2.679c2.371,0,4.109-1.117,4.109-3.482,0-2.171-1.4-2.992-3.591-2.992h-3.2c-.712,0-.855.137-.855.849Z" fill="#2a8648"/>
              <path id="パス_1671" data-name="パス 1671" d="M5994.155,3332.971c0-.171-.057-.342-.257-.342a.418.418,0,0,0-.256.114c-.428.427-1.8,1.909-2.365,1.909-.542,0-1.6-1.544-1.6-2.052,0-.314.319-.542.633-.827a25.7,25.7,0,0,0,6.161-7.472c.114-.177.228-.347.456-.347a6.771,6.771,0,0,1,1.6.684c.313.147.57.291.712.347.228.109.57.285.57.535,0,.228-.257.319-.428.348-.427.086-.427.114-.712.593a25.233,25.233,0,0,1-1.6,2.286c-.028.028-.028.057-.028.114,0,.086.085.142.171.176.228.029.627.08.627.394,0,.228-.228.347-.4.456-.4.256-.37.832-.37,2.37v5.477c0,1,.057,2,.057,2.992,0,.827-.314.968-1.482.968-1.2,0-1.544-.142-1.544-.968,0-1,.057-2,.057-2.992Zm6.36-14.208h3.938a.7.7,0,0,0,.8-.588.712.712,0,0,0,0-.182c-.023-.365-.085-.969-.114-1.339,0-.086-.029-.171-.029-.256,0-.313.285-.342.513-.342.4,0,2.057.142,2.485.17.228.028.741.028.741.342,0,.172-.114.228-.313.37-.342.2-.342.4-.342,1.084,0,.547.257.741.77.741h2.109c1.112,0,2.229-.057,3.34-.057.712,0,.684.319.684,1.368s.028,1.374-.684,1.374c-1.111,0-2.228-.057-3.34-.057h-2.08c-.542,0-.77.228-.8.77.028.313.057.626.057.946,0,.764-.37.741-1.624.741-1.06,0-1.459.023-1.459-.712a9.764,9.764,0,0,1,.063-1c-.034-.541-.262-.741-.8-.741h-3.91c-.513,0-.741.2-.764.741.023.314.051.6.051.884,0,.8-.37.77-1.567.77-1.14,0-1.51.034-1.51-.741,0-.313.029-.6.029-.912-.029-.541-.228-.741-.775-.741h-2.08c-1.111,0-2.223.057-3.334.057-.712,0-.684-.342-.684-1.374,0-1.048-.029-1.368.684-1.368,1.111,0,2.223.057,3.334.057h2.1c.513,0,.741-.223.769-.77,0-.336-.057-.969-.086-1.311,0-.086-.028-.2-.028-.257,0-.314.285-.342.513-.342.456,0,1.966.114,2.508.17.313.029.712.057.712.342,0,.143-.143.228-.314.342-.37.257-.336.428-.37,1.055C5999.751,3318.54,5999.979,3318.763,6000.515,3318.763Zm11.5,7.044c.291,0,.826.712,1.2,1.231.057.085.285.342.336.427.228.314.661.827.661,1.053a.4.4,0,0,1-.4.371c-.057,0-.171-.057-.262-.057a1.217,1.217,0,0,0-.308-.086.615.615,0,0,0-.376.142,40.821,40.821,0,0,1-7.016,3.881,1.022,1.022,0,0,0-.684,1.082v3.255c0,1.054.171,1.248,1.254,1.248h3.682c1.4,0,1.71-.336,2.2-3.249.08-.541.108-.8.741-.8a4.157,4.157,0,0,1,1.624.427.72.72,0,0,1,.427.689,12.938,12.938,0,0,1-1,3.79c-.713,1.625-1.51,1.943-3.226,1.943h-5.448c-2.166,0-3.283-.319-3.283-2.713,0-.546.034-1.083.034-1.624v-9.848a14.373,14.373,0,0,0-.085-1.961v-.284c0-.348.2-.405.484-.405.456,0,2.337.148,2.85.177.2.029.519.109.519.365s-.233.348-.4.428c-.4.256-.371,1.031-.371,2.656v1.4c.029.285.114.513.427.513a.687.687,0,0,0,.256-.057,33.475,33.475,0,0,0,5.677-3.705c.112-.09.317-.289.48-.289Z" fill="#2a8648"/>
              <path id="パス_1672" data-name="パス 1672" d="M6043.665,3321.419c0,.342,0,.684.028,1.026.4,3.363.741,6.048,2.508,9.011a23.006,23.006,0,0,0,7.819,7.386c.228.148.57.319.57.632,0,.456-1.089,2.081-1.8,2.081-.6,0-2.736-1.681-3.305-2.109a19.862,19.862,0,0,1-6.987-9.643.226.226,0,0,0-.228-.171.245.245,0,0,0-.234.171c-1.8,4.85-4.787,8.07-9.068,10.868a4.343,4.343,0,0,1-1.453.718c-.684,0-1.8-1.459-1.8-2.115,0-.371.4-.541.889-.826a19.189,19.189,0,0,0,7.7-7.22,20.3,20.3,0,0,0,2.394-9.467v-2.342a19.21,19.21,0,0,0-.114-2.65.766.766,0,0,1-.029-.257c0-.342.257-.4.519-.4.37,0,2.388.172,2.792.2.2.029.513.057.513.343,0,.17-.171.284-.37.427-.314.228-.342.827-.342,1.773Zm-6.9,2.223c-.291.086-.342.143-.456.513a35.013,35.013,0,0,1-2.114,5.306c-.171.319-.37.746-.769.746-.484,0-2.08-.66-2.08-1.168a1.23,1.23,0,0,1,.2-.546,31.348,31.348,0,0,0,2.28-5.962.376.376,0,0,1,.4-.342,12.322,12.322,0,0,1,1.767.542c.6.2,1.06.313,1.06.6-.005.168-.147.26-.29.311Zm16.63-.228c.143.114.513.371.513.571s-.257.256-.4.29c-.228,0-.285,0-.513.285-.627.793-3.9,4.737-4.7,4.737-.519,0-1.858-1.146-1.858-1.659,0-.257.257-.427.456-.6a25.142,25.142,0,0,0,4.109-4.565c.114-.171.2-.343.427-.343a3.951,3.951,0,0,1,1.311.8c.22.177.481.369.653.484Z" fill="#2a8648"/>
              <path id="パス_1673" data-name="パス 1673" d="M6083.758,3317.966c0,.177-.2.284-.342.342-.456.171-.57.314-.94.974a1.875,1.875,0,0,0-.285.656.281.281,0,0,0,.273.287l.04,0a20.62,20.62,0,0,0,3.306-.8,2.133,2.133,0,0,1,.718-.165c.484,0,.627.456.712.849a9.241,9.241,0,0,1,.228,1.544c0,.484-.912.6-1.51.712-1.8.371-3.6.684-5.4.884a1.022,1.022,0,0,0-.855.456,9.552,9.552,0,0,0-.969,1.653.216.216,0,0,0,.228.2,1.092,1.092,0,0,0,.513-.165,7.928,7.928,0,0,1,3.112-.746,2.914,2.914,0,0,1,3.25,2.536l0,.034c.051.257.137.485.422.485a24.548,24.548,0,0,0,3.34-1.63,2.439,2.439,0,0,1,.741-.286c.542,0,1.225,2.2,1.225,2.685,0,.342-.313.456-.855.627-.114.057-.256.086-.4.141-1.14.428-2.251.912-3.368,1.4-.507.2-.741.37-.741.946v.365c0,.89.028,1.744.028,2.627,0,1.026-.142,1.146-1.219,1.146-1.231,0-1.744-.063-1.744-.8,0-.626.057-1.254.057-1.853,0-.256-.086-.484-.371-.484-.142,0-3.083,1.249-3.083,3.021,0,1.915,2.77,2.081,4.138,2.081a20.814,20.814,0,0,0,5.306-.712,3.484,3.484,0,0,1,.57-.052c.37,0,.57.308.57,1.932,0,.86-.029,1.089-.656,1.231a37.714,37.714,0,0,1-5.477.376,10.592,10.592,0,0,1-4.508-.747,4.329,4.329,0,0,1-2.85-4.08c0-2.564,2.08-3.961,4.047-5.129.576-.348,1.174-.661,1.772-.946.285-.143.513-.314.513-.656a3.947,3.947,0,0,0-.142-.8,1.187,1.187,0,0,0-1.254-.969,9.578,9.578,0,0,0-5.334,2.508,19.108,19.108,0,0,0-2.4,3.34.474.474,0,0,1-.4.285c-.513,0-2.422-1.139-2.422-1.653,0-.228.228-.456.37-.632.656-.712,4.793-6.441,4.793-6.987,0-.257-.228-.343-.627-.343-.456,0-1.111.086-2,.086-.627,0-.741-.136-.741-1.6,0-1.139.114-1.311.826-1.311.484,0,1.231.057,2.057.057h.826c.741,0,1.51-.027,1.767-.37a15.654,15.654,0,0,0,1.539-3.683c.063-.313.114-.6.4-.6C6080.823,3316.227,6083.758,3317.537,6083.758,3317.966Z" fill="#2a8648"/>
              <path id="パス_1674" data-name="パス 1674" d="M6118.347,3336.824c0-.291-.256-.376-.484-.376h-.342c-.918,0-1.829.057-2.741.057-.513,0-.6-.2-.627-.656,0-.113-.057-.256-.2-.256-.057,0-.085.028-.142.057-.655.427-3.163,1.943-3.824,1.943-.513,0-1.339-1.453-1.339-1.943,0-.314.456-.457.684-.542a18.851,18.851,0,0,0,4.594-2.507.233.233,0,0,0,.114-.228c0-.177-.171-.228-.285-.228h-.912c-1.168,0-2.308.051-3.454.051-.655,0-.655-.256-.655-1.14,0-.849,0-1.077.684-1.077,1.14,0,2.285.051,3.425.051h3.362a.874.874,0,0,0,.826-.37c.051-.086.142-.166.2-.257a.374.374,0,0,0,.08-.227c0-.286-.228-.343-.422-.372h-.37c-.747,0-1.459.058-2.2.058-.8,0-1.368-.143-1.368-1.083,0-.485.057-.969.057-1.454V3323.9c0-.485-.057-.969-.057-1.454,0-.912.541-1.083,1.339-1.083.314,0,.633.028.969.028h.148c.57,0,.536-.4.57-.86,0-.456-.205-.621-.661-.621h-2.531c-1.111,0-2.228.057-3.368.057-.655,0-.655-.256-.655-1.139s0-1.146.655-1.146c1.14,0,2.257.057,3.368.057h2.565c.427,0,.633-.171.633-.626,0-.143-.063-.627-.063-.684,0-.314.228-.342.456-.342.484,0,1.886.113,2.428.17.2.029.655.029.655.314,0,.148-.085.2-.285.342a.5.5,0,0,0-.257.228l-.029.057c0,.057-.028.086-.028.171.057.313.313.342.6.37h3.682c.456,0,.656-.2.627-.656a2.192,2.192,0,0,0-.029-.427.549.549,0,0,1-.029-.228c0-.286.228-.314.456-.314.484,0,2.08.143,2.627.171.165.028.484.057.484.313,0,.143-.177.228-.319.313a.625.625,0,0,0-.228.228l-.029.057a1.16,1.16,0,0,0-.057.171c.057.313.313.342.57.37h2.684c1.111,0,2.251-.057,3.363-.057.684,0,.661.257.661,1.146s0,1.139-.661,1.139c-1.111,0-2.251-.057-3.363-.057h-2.484c-.513,0-.741.222-.741.769,0,.564.285.741.832.712.256,0,.507-.028.764-.028.775,0,1.374.137,1.374,1.055,0,.456-.029.946-.029,1.482v2.427c0,.57.029,1.026.029,1.482,0,.883-.542,1.055-1.311,1.055-.747,0-1.488-.058-2.257-.058h-5.534c-.057,0-.085.058-.028.086.142.058.427.148.427.342s-.228.262-.4.262a.781.781,0,0,0-.342.2.231.231,0,0,0-.057.143c0,.148.114.177.257.2h9.472c1.14,0,2.28-.051,3.42-.051.655,0,.655.227.655,1.077,0,.884,0,1.14-.655,1.14-1.14,0-2.28-.051-3.42-.051h-1.339c-.143,0-.314.051-.314.228a.293.293,0,0,0,.114.256,24.587,24.587,0,0,0,5.249,2.827c.228.08.541.194.541.484,0,.365-.94,1.91-1.487,1.91-.684,0-3.277-1.63-3.961-2.058a.5.5,0,0,0-.285-.08c-.262,0-.348.228-.4.428-.513,5.158-1.317,5.733-4.879,5.733-.576,0-1.231,0-1.459-.4a3.309,3.309,0,0,1-.336-1.367c0-.456.08-.77.6-.77.484,0,.94.057,1.425.057.826,0,1.254-.091,1.539-.941a5.412,5.412,0,0,0,.256-1.487c0-.536-.314-.513-1.225-.513h-1.715a1.007,1.007,0,0,0-1.083.689,7.774,7.774,0,0,1-4.36,3.819,10.985,10.985,0,0,1-2.6.741c-.741,0-1.4-1.595-1.4-1.995s.37-.427.741-.484a8.245,8.245,0,0,0,4.736-2.137A.46.46,0,0,0,6118.347,3336.824Zm8.469-13.125a.44.44,0,0,0-.452-.428h-10.1a.414.414,0,0,0-.454.371.368.368,0,0,0,0,.057v.148a.424.424,0,0,0,.391.456h10.165a.451.451,0,0,0,.456-.444v-.16Zm-10.555,2.228a.422.422,0,0,0-.456.385.431.431,0,0,0,0,.071v.2c0,.286.177.428.456.456h10.1a.464.464,0,0,0,.456-.456v-.2a.446.446,0,0,0-.436-.456h-10.12Zm9.7,7.927c0-.085-.057-.142-.114-.228-.342-.313-.655-.656-1-1a1.38,1.38,0,0,0-1.254-.484h-4.651a1.5,1.5,0,0,0-1.254.484c-.376.342-.769.684-1.168,1.026-.086.085-.148.142-.148.256s.091.228.319.257h1.738c.484,0,.8-.171.8-.741,0-.171-.028-.342-.028-.548,0-.279.085-.427.427-.427.427,0,1.8.119,2.285.177.37.023.65.023.65.279,0,.2-.194.319-.37.405a.38.38,0,0,0-.251.4c0,.4.285.456.621.456h1.146c.655,0,1.282,0,1.938-.028.143-.027.314-.078.314-.283Zm-6.332-13.946c-.542,0-.741.194-.769.741a1.1,1.1,0,0,1,.028.285c0,.285.057.456.37.484h3.967c.4,0,.542-.2.542-.569v-.2c0-.547-.228-.741-.747-.741Z" fill="#2a8648"/>
              <path id="パス_1675" data-name="パス 1675" d="M6162.294,3322.131c0,.485.2.684.655.684h2.769c1.02,0,2.052-.057,3.106-.057.656,0,.684.171.684.969,0,.832-.028,1-.684,1-1.055,0-2.086-.063-3.106-.063h-2.884c-.4,0-.541.142-.541.547v.307c0,.405.143.542.513.542h2.878c1.054,0,2.086-.057,3.14-.057.656,0,.684.205.684,1,0,.77,0,1-.684,1-1.055,0-2.086-.057-3.14-.057h-2.736c-.456,0-.655.2-.655.684v.057c0,.485.2.684.655.684h5.363c1.083,0,2.171-.057,3.249-.057.655,0,.684.2.684,1.026,0,.8-.028,1-.65,1-1.089,0-2.171-.03-3.283-.03h-6.047c-.029,0-.057,0-.057.03a.062.062,0,0,0,.057.057c.542.029.741.136.741.37,0,.166-.171.257-.4.392a.6.6,0,0,0-.285.485c0,.319.285.4.541.4h6.475c1.145,0,2.285-.058,3.391-.058.69,0,.69.286.69,1.2,0,.94,0,1.2-.69,1.2-1.106,0-2.246-.057-3.391-.057h-3.767c-.114.029-.285.057-.285.228a.23.23,0,0,0,.142.228,29.228,29.228,0,0,0,7.421,3.426c.2.057.427.142.427.4,0,.457-.912,1.938-1.653,1.938a18.125,18.125,0,0,1-4-1.681,28.065,28.065,0,0,1-4.821-3.2c-.086-.052-.143-.115-.257-.115-.228,0-.285.2-.313.4v1.425c0,.832.085,1.63.085,2.457,0,.911-.4.911-1.482.911-1.117,0-1.545.029-1.545-.911,0-.8.057-1.625.057-2.457v-1.368c-.023-.194-.085-.4-.313-.4a.53.53,0,0,0-.285.08,27.731,27.731,0,0,1-7.443,4.252,5.785,5.785,0,0,1-1.624.462c-.627,0-1.488-1.4-1.488-1.858,0-.342.256-.4.661-.542a.918.918,0,0,0,.228-.057,29.35,29.35,0,0,0,6.959-3.169.246.246,0,0,0,.142-.228c0-.171-.171-.2-.285-.228h-3.6c-1.111,0-2.251.057-3.4.057-.655,0-.655-.257-.655-1.2s0-1.2.655-1.2c1.146,0,2.285.058,3.4.058h6.246c.513,0,.741-.2.741-.741,0-.119-.028-.2-.028-.319-.086-.456-.2-.678-.684-.678h-3.049c-.712,0-1.453.029-2.2.029-.883,0-1.482-.12-1.482-1.141,0-.66.029-1.316.029-1.972v-3.6c0-.165-.057-.337-.256-.337a.411.411,0,0,0-.257.109c-.285.319-1.111,1.26-1.516,1.26-.422,0-1.539-1.26-1.539-1.715,0-.2.319-.485.462-.593a25.083,25.083,0,0,0,5.186-7.107c.085-.17.171-.37.4-.37a14.245,14.245,0,0,1,2.086.513c.6.171.884.256.884.511,0,.2-.2.314-.371.343-.427.115-.484.229-.8.771-.114.2-.256.454-.456.774a.456.456,0,0,0-.086.286c0,.279.228.336.456.37h2.821a1.09,1.09,0,0,0,1.146-.627c.393-.8.764-1.716,1.083-2.571a.362.362,0,0,1,.342-.284,18.242,18.242,0,0,1,2.394.683c.228.063.712.2.712.484,0,.257-.2.291-.342.314a.665.665,0,0,0-.542.256c-.114.176-.456.86-.6,1.088a.4.4,0,0,0-.057.257c0,.28.2.365.456.4h3.442c1.083,0,2.137-.063,3.22-.063.655,0,.684.2.684,1.032,0,.8-.028,1-.684,1-1.083,0-2.137-.057-3.22-.057h-3.967c-.456,0-.655.2-.655.684Zm-6.93-.769a.641.641,0,0,0-.684.6.617.617,0,0,0,0,.085v.085a.642.642,0,0,0,.6.684h3.5a.636.636,0,0,0,.657-.614.553.553,0,0,0,0-.07v-.085a.636.636,0,0,0-.586-.683.555.555,0,0,0-.07,0Zm-.143,3.306a.494.494,0,0,0-.542.441.483.483,0,0,0,0,.106v.307a.489.489,0,0,0,.432.542.482.482,0,0,0,.109,0h3.676a.493.493,0,0,0,.541-.438.463.463,0,0,0,0-.1v-.307a.5.5,0,0,0-.449-.547.48.48,0,0,0-.092,0Zm.143,3.282a.642.642,0,0,0-.684.6.617.617,0,0,0,0,.085v.057a.643.643,0,0,0,.6.684h3.5a.636.636,0,0,0,.657-.614.557.557,0,0,0,0-.07v-.057a.636.636,0,0,0-.586-.683.555.555,0,0,0-.07,0Z" fill="#2a8648"/>
              <path id="パス_1676" data-name="パス 1676" d="M6198.109,3318.961c.2.035.57.143.57.4,0,.2-.171.285-.342.434-1,.735-1.254,9.78-1.254,11.409,0,2.223-.057,5.676,3.021,5.676a7.214,7.214,0,0,0,5.363-2.77,9.022,9.022,0,0,0,1.738-4.222c.091-.456.142-.94.576-.94.627,0,2.365,1.458,2.365,2.308a10.593,10.593,0,0,1-1.168,3.34,9.99,9.99,0,0,1-8.674,5.448,6.31,6.31,0,0,1-5.021-2.195c-1.277-1.71-1.425-4.485-1.425-6.565q0-3.369.256-6.754c.091-1.316.348-4.051.348-5.22V3319c0-.428.029-.718.422-.718A25,25,0,0,1,6198.109,3318.961Z" fill="#2a8648"/>
              <path id="パス_1677" data-name="パス 1677" d="M6241.486,3317.633c.735.08,1.14.136,1.14.456,0,.536-.485.057-.542,2.365,0,.4.086.826.6.826.114,0,1.225-.17,1.43-.2a29.075,29.075,0,0,0,3.1-.656,7.314,7.314,0,0,1,1.088-.229c.627,0,.712,1.852.712,2.337,0,.576-.256.627-.8.741-1.482.319-3.254.575-4.765.747-.6.079-1.282.057-1.282.849a8.726,8.726,0,0,0,.142,1.516c.057.171.114.456.456.456a24.108,24.108,0,0,0,3.653-.684,1.769,1.769,0,0,1,.542-.119c.4,0,.484.632.484,1.715,0,.94-.028,1.225-.541,1.34a23.4,23.4,0,0,1-2.941.484c-1.083.114-1.653.114-1.653.917,0,2.964.114,2.735,1.34,3.135.946.313,4.707,1.91,4.707,2.935,0,.628-.94,2.087-1.624,2.087a1.609,1.609,0,0,1-.889-.457c-.513-.4-2.394-1.744-2.964-1.744-.456,0-.513.433-.57.633-.6,2.45-2.855,3.163-5.164,3.163-2.285,0-4.764-1.054-4.764-3.71,0-2.878,3.112-3.789,5.477-3.789.342,0,1,.057,1.168.057.49,0,.49-.513.49-.8,0-.912.057-1.966-.655-1.966-.6,0-2.2.114-3.425.114-1.174,0-1.716.028-1.943-.484a5.872,5.872,0,0,1-.365-1.995c0-.343.08-.6.484-.6.336,0,1.938.142,3.021.142h1.282c1.054,0,1.453-.086,1.453-.718,0-.821-.023-1.989-.764-1.989-1,0-3.283.137-4.827.137h-.849c-.775,0-1.487-.028-1.658-.257a5.065,5.065,0,0,1-.313-2.08c0-.4.029-.8.513-.8.6,0,2.992.234,4.394.234,2.508,0,3.226.057,3.226-.718,0-.456-.177-2.365-.262-2.849a2.479,2.479,0,0,1-.057-.456c0-.279.171-.342.428-.342C6239.627,3317.367,6240.973,3317.566,6241.486,3317.633Zm-6.366,18.932c0,.975,1.288,1.146,2.029,1.146,1.311,0,2.428-.371,2.428-1.915,0-.542-.684-.542-1.345-.542-.884,0-3.112.079-3.112,1.307Z" fill="#2a8648"/>
              <path id="パス_1678" data-name="パス 1678" d="M6280.754,3316.938c.684.058,1.539.143,1.539.4a.461.461,0,0,1-.171.319c-.2.136-.427.365-.456,1.2-.023.6-.023,1.219-.023,1.823a.743.743,0,0,0,.653.821.773.773,0,0,0,.168,0c.228,0,1.339-.08,1.653-.08,1.4-.057,4.451-.227,5.677-.227.456,0,.655.17.655,1.459,0,1.732-.336,1.7-.627,1.7-.393,0-2.536-.143-4.138-.143-.507,0-3.163.029-3.477.114a.924.924,0,0,0-.541.946v.991a2.42,2.42,0,0,0,.285,1.488,8.72,8.72,0,0,1,.883,3.99c0,4.6-3.055,9.7-4.3,9.7-.348,0-2.656-.712-2.656-1.226,0-.222.484-.627.655-.8a9.361,9.361,0,0,0,2.052-2.765,1.115,1.115,0,0,0,.148-.433.223.223,0,0,0-.2-.2.609.609,0,0,0-.228.028,2.892,2.892,0,0,1-.661.148c-2.479,0-3.391-2.684-3.391-4.764,0-2.628,1.14-5.135,4.024-5.4.137-.029.336-.109.336-.337,0-1.061-.2-1.2-.513-1.2-.228,0-1.539.137-1.881.165-1.482.142-5.164.547-6.531.832a3.106,3.106,0,0,1-.428.051c-.456,0-.484-.4-.57-.763a15.809,15.809,0,0,1-.228-2.057c0-.57.256-.513,1.653-.57.769-.029,7.477-.4,7.728-.456a.842.842,0,0,0,.633-.884,24.542,24.542,0,0,0-.29-3.539.6.6,0,0,1-.029-.228c0-.228.148-.336.376-.336C6279.187,3316.717,6280.07,3316.882,6280.754,3316.938Zm-3.767,14.289c0,.86.2,2.427,1.339,2.427s1.488-1.459,1.488-2.336-.262-2.514-1.43-2.514c-1.112,0-1.4,1.569-1.4,2.424Z" fill="#2a8648"/>
              <path id="パス_1679" data-name="パス 1679" d="M6318.813,3337.645a2.084,2.084,0,0,1-1.992,2.172c-.06,0-.12,0-.18,0a1.82,1.82,0,0,1-1.935-1.7q0-.078,0-.156a2.091,2.091,0,0,1,1.924-2.246c.071,0,.142-.007.213,0a1.907,1.907,0,0,1,1.972,1.841C6318.813,3337.585,6318.813,3337.615,6318.813,3337.645Zm-2.508-4.074c-.713,0-.861-.142-.889-.855l-.2-7.045c-.057-1.886-.2-5.049-.2-5.625,0-.479.171-.593.8-.593h1.858c.621,0,.792.114.792.593,0,.575-.137,3.739-.2,5.824l-.171,6.845c-.029.713-.165.855-.878.855Z" fill="#2a8648"/>
            </g>
          </g>
        </g>
      </g>
      <g id="グループ_1687" data-name="グループ 1687" transform="translate(-8388.418 110.482)">
        <g id="グループ_1600" data-name="グループ 1600">
          <path id="パス_1545" data-name="パス 1545" d="M6064.3,2800.222h3.113c.657,0,1.3-.044,1.893-.044.407,0,.376.186.376.765s.03.769-.376.769c-.625,0-1.252-.033-1.893-.033h-8.358c-.3,0-.423.125-.423.439v2.517a17.292,17.292,0,0,1-1.189,6.838c-.328.735-.469.907-.7.907-.407,0-1.173-.39-1.173-.7a.883.883,0,0,1,.125-.283,13.622,13.622,0,0,0,1.329-6.587v-2.441c0-.486-.031-.954-.031-1.438,0-.611.328-.734.876-.734.516,0,1.032.028,1.549.028h2.316c.3,0,.437-.123.437-.421a8.358,8.358,0,0,0-.063-1.094c0-.047-.016-.111-.016-.158,0-.172.141-.2.3-.2.2,0,1.189.1,1.44.11.141.016.406.031.406.219,0,.11-.079.141-.188.235-.188.142-.188.344-.172.892C6063.881,2800.1,6064.022,2800.222,6064.3,2800.222Zm-3.285,5.2c.124.031.358.078.358.251,0,.094-.108.186-.186.232-.156.127-.156.22-.172.423a18.893,18.893,0,0,1-.955,4.242c-.079.186-.172.42-.407.42-.251,0-1.017-.218-1.017-.531a1.581,1.581,0,0,1,.125-.421,17.48,17.48,0,0,0,.906-4.49c.016-.142.048-.316.235-.316a10.774,10.774,0,0,1,1.113.19Zm4.365,5.165a1.334,1.334,0,0,0,.7-.128,4.167,4.167,0,0,0,.438-1.563c.031-.315.061-.454.407-.454s1.125.125,1.125.578a7.442,7.442,0,0,1-.547,2.236c-.408.94-.97.893-1.863.893h-2.049c-1.22,0-1.815-.11-1.815-1.347,0-.39.03-.781.03-1.172V2806.2c0-.5,0-1.111-.046-1.612,0-.047-.016-.109-.016-.158,0-.188.109-.233.267-.233.2,0,1.173.078,1.424.092.108.015.281.048.281.2,0,.11-.1.157-.173.22-.2.156-.219.609-.219,1.11v4.022c0,.641.111.736.736.736Zm-.532-4.242c-.267,0-.344-.188-.423-.423a19.755,19.755,0,0,0-1.377-3.269.529.529,0,0,1-.077-.267c0-.312.766-.548,1.016-.548a.379.379,0,0,1,.313.22,18.349,18.349,0,0,1,.908,1.845,11.955,11.955,0,0,1,.688,1.911c0,.387-.922.527-1.048.527Zm3.41-1.566a16.88,16.88,0,0,1,1.095,2.471,16.528,16.528,0,0,1,.657,2.129c0,.406-.907.6-1.048.6-.265,0-.3-.234-.344-.439a23.773,23.773,0,0,0-1.58-4.1,1.2,1.2,0,0,1-.141-.374c0-.283.783-.533.985-.533a.435.435,0,0,1,.373.243Z" fill="#2a8648"/>
          <path id="パス_1546" data-name="パス 1546" d="M6082.853,2809.814c0-.156-.141-.2-.267-.2h-.186c-.5,0-1,.032-1.5.032-.281,0-.329-.112-.344-.362,0-.061-.031-.139-.109-.139a.151.151,0,0,0-.079.032,8.938,8.938,0,0,1-2.1,1.062c-.283,0-.736-.8-.736-1.062,0-.174.251-.251.376-.3a10.334,10.334,0,0,0,2.518-1.376.129.129,0,0,0,.063-.127c0-.093-.1-.124-.158-.124h-.5c-.641,0-1.268.031-1.894.031-.36,0-.36-.139-.36-.624,0-.47,0-.595.376-.595.625,0,1.252.032,1.877.032h1.847a.487.487,0,0,0,.453-.205c.032-.048.078-.094.109-.14a.2.2,0,0,0,.048-.124c0-.157-.125-.19-.235-.2h-.2c-.407,0-.8.031-1.205.031-.437,0-.751-.079-.751-.594,0-.266.032-.532.032-.8v-1.329c0-.266-.032-.532-.032-.8,0-.5.3-.6.734-.6.173,0,.346.015.534.015h.077c.314,0,.3-.217.314-.47s-.109-.343-.36-.343H6079.8c-.611,0-1.221.032-1.847.032-.36,0-.36-.143-.36-.628s0-.625.36-.625c.625,0,1.236.031,1.847.031h1.408c.235,0,.344-.1.344-.345,0-.077-.031-.342-.031-.374,0-.172.124-.188.249-.188.267,0,1.033.063,1.331.093.109.016.36.016.36.174,0,.075-.048.106-.156.185a.278.278,0,0,0-.141.125l-.016.032c0,.032-.016.047-.016.094.032.172.174.188.33.2h2.019c.249,0,.358-.109.344-.358a1.233,1.233,0,0,0-.016-.236.276.276,0,0,1-.016-.124c0-.158.125-.172.251-.172.267,0,1.143.078,1.44.093.093.016.265.032.265.174,0,.074-.093.123-.172.17a.311.311,0,0,0-.125.125l-.016.032a.919.919,0,0,0-.031.094c.031.172.172.188.313.2h1.471c.61,0,1.236-.031,1.847-.031.374,0,.358.141.358.625s0,.628-.358.628c-.611,0-1.236-.032-1.847-.032h-1.361c-.281,0-.406.125-.406.421,0,.313.156.407.453.391.141,0,.281-.015.422-.015.423,0,.751.077.751.578,0,.253-.014.517-.014.816v1.329c0,.312.014.564.014.814,0,.484-.3.578-.718.578s-.815-.031-1.237-.031h-3.043c-.032,0-.046.031-.016.047.077.03.235.079.235.188s-.126.139-.219.139a.442.442,0,0,0-.188.109.121.121,0,0,0-.032.079c0,.079.063.095.141.112h5.194c.627,0,1.252-.032,1.877-.032.36,0,.36.125.36.6s0,.624-.36.624c-.625,0-1.251-.031-1.877-.031h-.736c-.077,0-.172.031-.172.124a.164.164,0,0,0,.064.142,13.264,13.264,0,0,0,2.879,1.549c.125.047.3.111.3.265,0,.2-.517,1.05-.815,1.05a9.621,9.621,0,0,1-2.174-1.127.273.273,0,0,0-.156-.046c-.141,0-.188.123-.22.235-.281,2.83-.718,3.146-2.675,3.146-.313,0-.673,0-.8-.22a1.778,1.778,0,0,1-.186-.751c0-.252.047-.423.328-.423.265,0,.516.033.781.033.455,0,.689-.046.845-.516a2.967,2.967,0,0,0,.141-.815c0-.3-.172-.282-.673-.282h-.939a.553.553,0,0,0-.594.375,4.258,4.258,0,0,1-2.393,2.1,6.075,6.075,0,0,1-1.424.407c-.406,0-.767-.876-.767-1.1s.2-.233.407-.265a4.523,4.523,0,0,0,2.6-1.173A.234.234,0,0,0,6082.853,2809.814Zm4.646-7.2a.245.245,0,0,0-.249-.236h-5.54a.226.226,0,0,0-.248.2.194.194,0,0,0,0,.034v.077a.23.23,0,0,0,.207.251.241.241,0,0,0,.042,0h5.54a.247.247,0,0,0,.249-.245v-.083Zm-5.789,1.219a.23.23,0,0,0-.249.209.287.287,0,0,0,0,.041v.111c0,.156.093.234.249.249h5.54a.255.255,0,0,0,.249-.249v-.111a.246.246,0,0,0-.242-.25h-5.547Zm5.32,4.351c0-.048-.031-.079-.062-.125-.186-.172-.36-.359-.547-.549a.766.766,0,0,0-.689-.266h-2.551a.826.826,0,0,0-.688.266c-.2.19-.423.377-.641.565a.185.185,0,0,0-.079.141c0,.062.048.123.172.139h.954c.267,0,.439-.095.439-.406,0-.094-.016-.188-.016-.3,0-.157.047-.235.235-.235.235,0,.987.063,1.252.093.2.016.36.016.36.157,0,.109-.109.17-.2.22a.2.2,0,0,0-.14.218c0,.219.156.25.344.25h.625c.36,0,.7,0,1.064-.016.072-.009.165-.039.165-.149Zm-3.473-7.65c-.3,0-.407.109-.423.405a.6.6,0,0,1,.016.158c0,.155.031.249.2.265h2.176c.219,0,.3-.109.3-.312v-.11c0-.3-.125-.405-.408-.405Z" fill="#2a8648"/>
          <path id="パス_1547" data-name="パス 1547" d="M6106.387,2798.91c.374.031.844.079.844.22a.238.238,0,0,1-.091.17c-.111.079-.236.2-.252.657-.015.328-.015.673-.015,1a.411.411,0,0,0,.453.454c.125,0,.736-.047.906-.047.768-.031,2.443-.125,3.115-.125.25,0,.358.094.358.8,0,.954-.186.938-.342.938-.219,0-1.393-.078-2.269-.078-.281,0-1.738.016-1.908.062a.5.5,0,0,0-.3.518v.546a1.306,1.306,0,0,0,.157.813,4.817,4.817,0,0,1,.485,2.192c0,2.52-1.675,5.318-2.363,5.318-.188,0-1.456-.39-1.456-.673,0-.124.267-.344.36-.438a5.023,5.023,0,0,0,1.126-1.517.6.6,0,0,0,.077-.235.117.117,0,0,0-.108-.109.406.406,0,0,0-.125.014,1.436,1.436,0,0,1-.36.079c-1.361,0-1.863-1.47-1.863-2.612,0-1.44.627-2.816,2.207-2.957a.2.2,0,0,0,.186-.187c0-.579-.108-.656-.28-.656-.127,0-.845.078-1.033.094-.813.076-2.832.3-3.584.453a1.3,1.3,0,0,1-.233.03c-.251,0-.267-.219-.313-.421a8.907,8.907,0,0,1-.124-1.127c0-.315.138-.282.906-.315.422-.016,4.1-.219,4.24-.249a.461.461,0,0,0,.346-.484,13.511,13.511,0,0,0-.158-1.94.334.334,0,0,1-.016-.126.178.178,0,0,1,.165-.19.212.212,0,0,1,.035,0C6105.527,2798.788,6106.008,2798.878,6106.387,2798.91Zm-2.065,7.839c0,.47.109,1.331.736,1.331s.813-.8.813-1.284-.141-1.377-.783-1.377c-.61,0-.766.86-.766,1.33Z" fill="#2a8648"/>
          <path id="パス_1548" data-name="パス 1548" d="M6129.2,2801.083c0,.111-.171.2-.344.328a15.232,15.232,0,0,0-2.269,2.1.479.479,0,0,0-.155.266c0,.124.125.2.265.2a1.161,1.161,0,0,0,.2-.03,2.809,2.809,0,0,1,.641-.063,4.578,4.578,0,0,1,1.925.469,3.233,3.233,0,0,1,1.861,3.034c0,2.771-2.455,4.209-4.974,4.209-1.3,0-3.145-.531-3.145-2.127a1.965,1.965,0,0,1,2-1.894,2.556,2.556,0,0,1,2.081,1.112,1.552,1.552,0,0,1,.28,1c.016.108.063.2.189.2a2.544,2.544,0,0,0,1.892-2.41c0-1.519-1.283-2.144-2.642-2.144a4.75,4.75,0,0,0-3.506,1.533c-.611.6-1.173,1.237-1.737,1.878a.215.215,0,0,1-.172.109c-.328,0-1.127-.876-1.127-1.125,0-.188.235-.362.376-.472a61.89,61.89,0,0,0,4.865-4.914c.125-.124.406-.4.406-.562,0-.139-.14-.186-.265-.186a3.376,3.376,0,0,0-.375.063c-.377.092-2.583.547-2.833.547-.344,0-.391-1.174-.391-1.44,0-.361.016-.391.485-.391h.375a14.483,14.483,0,0,0,3.958-.578,2.052,2.052,0,0,1,.6-.172C6128.3,2799.629,6129.2,2800.817,6129.2,2801.083Zm-3.959,7.76a.65.65,0,0,0-.673.626h0c0,.563.752.829,1.222.829.3,0,.423-.281.423-.532a.958.958,0,0,0-.971-.924Z" fill="#2a8648"/>
        </g>
        <path id="パス_1549" data-name="パス 1549" d="M6054.184,2819.54h106.455l-15.29-17.1" transform="translate(0 -1)" fill="none" stroke="#2a8648" stroke-miterlimit="10" stroke-width="1.97"/>
      </g>
    </g>
  </g>
</svg>
