<svg xmlns="http://www.w3.org/2000/svg" width="459.348" height="2570.353" viewBox="0 0 459.348 2570.353">
  <g id="グループ_2113" data-name="グループ 2113" transform="translate(1638.348 -5207)">
    <path id="パス_1680" data-name="パス 1680" d="M6281.072,2451.349h459.346V1473.926l-75.759-152.408-102.3,205.816-102.316,205.82h86.469l-23.529,47.327L6381.311,2065.5h91.559l-35.923,72.261Z" transform="translate(-7919.418 3885.482)" fill="#2a8648"/>
    <path id="パス_1682" data-name="パス 1682" d="M6740.418,1895.954v-61.729l-32.623,31.766-10.5-321.368-35.372-1.81-7.906,182.682-66.5-74.254-14.04,9.529,71.678,127.549-6.965,149.65-91.419-81.566-12.988,14.817,99.143,139.806-15.118,449.024,102.433.007-12.467-517.876Z" transform="translate(-7919.418 3885.482)" fill="#ef463a"/>
    <path id="パス_1684" data-name="パス 1684" d="M6740.418,3069.789V2092.364l-75.759-152.416-102.3,205.825-102.317,205.817h86.469l-23.521,47.327-141.679,285.024h91.559l-191.8,385.847Z" transform="translate(-7919.418 3885.482)" fill="#93b82c"/>
    <path id="パス_1686" data-name="パス 1686" d="M6740.418,2551.949v-59.392l-37.921,36.925L6692,2208.118l-35.372-1.8-7.911,182.673-66.5-74.244-14.039,9.514,71.677,127.556-6.964,149.641-91.419-81.566-12.988,14.816,99.143,139.81-15.118,449.033h102.436l-12.467-517.876Z" transform="translate(-7919.418 3885.482)" fill="#ef463a"/>
    <path id="パス_1688" data-name="パス 1688" d="M6281.072,3700.349h459.346V2722.927l-75.759-152.407-102.3,205.816L6460.042,2982.16h86.469l-23.529,47.318L6381.311,3314.5h91.559l-35.923,72.261Z" transform="translate(-7919.418 3885.482)" fill="#2a8648"/>
    <path id="パス_1692" data-name="パス 1692" d="M6740.418,3202.066v-62.44l-31.028,30.216L6698.9,2848.468l-35.372-1.8-7.906,182.673-66.5-74.245-14.039,9.514,71.678,127.555-6.965,149.641-91.419-81.566-12.988,14.816,99.143,139.82-15.118,576.994h102.436l-12.467-645.846Z" transform="translate(-7919.418 3885.482)" fill="#ef463a"/>
  </g>
</svg>
